<?xml version="1.0" encoding="UTF-8" standalone="no"?>
<svg width="116px" height="116px" viewBox="0 0 116 116" version="1.1" xmlns="http://www.w3.org/2000/svg" xmlns:xlink="http://www.w3.org/1999/xlink">
    <!-- Generator: Sketch 3.7.2 (28276) - http://www.bohemiancoding.com/sketch -->
    <title>chervyak</title>
    <desc>Created with Sketch.</desc>
    <defs></defs>
    <g id="Page-1" stroke="none" stroke-width="1" fill="none" fill-rule="evenodd">
        <g id="chervyak" fill="#A98C5A">
            <g id="Слой_1">
                <g id="Shape_12">
                    <path d="M76.861,0.501 C65.803,0.907 55.14,7.127 48.246,19.552 C47.551,20.807 46.768,21.505 45.356,21.992 C44.146,22.41 42.851,23.519 42.269,24.666 C37.305,34.446 32.465,44.29 27.684,54.162 C27.154,55.256 26.685,56.889 27.124,57.841 C28.149,60.066 26.955,61.362 25.791,62.772 C24.641,64.163 23.464,65.55 22.146,66.777 C21.497,67.381 20.544,67.79 19.663,67.99 C17.081,68.576 15.047,69.865 13.509,72.034 C12.937,72.842 12.223,73.656 11.387,74.153 C3.37,78.926 -0.863,88.218 0.894,97.359 C2.704,106.772 9.948,113.755 19.445,115.241 C28.535,116.662 37.979,112.114 42.166,103.79 C46.156,95.852 52.025,89.937 59.864,85.974 C71.382,80.152 82.973,74.475 94.537,68.745 C107.513,62.316 114.837,51.957 115.464,37.448 C116.345,17.077 100.219,0.5 76.861,0.501 L76.861,0.501 Z M31.234,55.691 C36.028,46.054 40.79,36.402 45.593,26.771 C45.849,26.257 46.394,25.889 46.767,25.493 C47.357,25.69 47.739,25.773 48.08,25.941 C50.801,27.273 53.502,28.646 56.233,29.958 C57.78,30.701 57.34,31.734 56.788,32.849 C53.893,38.68 51.007,44.515 48.118,50.349 C46.346,53.93 44.537,57.494 42.821,61.101 C42.109,62.598 41.234,62.915 39.758,62.136 C37.25,60.811 34.693,59.58 32.139,58.344 C30.903,57.746 30.61,56.945 31.234,55.691 L31.234,55.691 Z M31.177,62.24 C33.113,63.205 35.091,64.19 37.412,65.347 C34.976,68.42 32.685,71.307 30.433,74.149 C28.83,72.204 27.441,70.516 26.008,68.776 C27.599,66.766 29.343,64.56 31.177,62.24 L31.177,62.24 Z M21.303,71.856 C24.174,71.91 26.435,74.228 26.397,77.08 C26.358,80.017 23.936,82.327 21.007,82.223 C18.15,82.121 15.981,79.784 16.047,76.876 C16.113,73.983 18.396,71.802 21.303,71.856 L21.303,71.856 Z M18.836,86.948 C19.578,86.518 20.511,86.302 21.378,86.219 C25.238,85.848 28.058,84.065 29.689,80.476 C29.971,79.855 30.483,79.33 30.932,78.795 C34.037,75.103 37.137,71.405 40.285,67.749 C40.743,67.218 41.394,66.671 42.045,66.524 C43.897,66.107 45.203,65.097 46.024,63.439 C50.919,53.556 55.846,43.689 60.625,33.75 C61.184,32.588 61.303,30.877 60.889,29.674 C60.414,28.295 60.722,27.341 61.304,26.267 C65.053,19.355 71.922,15.255 79.807,15.215 C89.645,15.165 98.177,21.91 100.321,31.431 C102.502,41.113 97.7,50.816 88.848,55.162 C76.054,61.445 63.241,67.704 50.628,74.338 C41.175,79.311 34.162,86.889 29.397,96.494 C27.846,99.621 24.858,101.113 21.377,100.604 C18.552,100.192 16.027,97.794 15.417,94.946 C14.737,91.784 16.065,88.549 18.836,86.948 L18.836,86.948 Z M111.481,38.938 C110.378,50.92 104.058,59.606 93.251,64.982 C81.29,70.933 69.279,76.787 57.39,82.877 C49.171,87.087 42.953,93.348 38.841,101.744 C35.533,108.499 28.374,112.128 20.667,111.442 C13.811,110.833 7.458,105.659 5.312,98.936 C3.065,91.896 5.254,84.13 10.824,79.414 C11.164,79.127 11.539,78.88 11.802,78.685 C12.942,80.622 14.052,82.509 15.252,84.549 C12.603,87 11.032,90.23 11.335,94.152 C11.73,99.278 15.544,103.551 20.39,104.462 C25.639,105.448 30.526,103.073 32.943,98.2 C36.769,90.485 42.288,84.263 49.489,79.61 C53.114,77.268 56.921,75.172 60.783,73.24 C70.537,68.36 80.34,63.573 90.179,58.869 C100.299,54.031 105.955,43.875 104.556,32.724 C103.235,22.196 94.947,13.61 84.179,11.617 C73.894,9.713 63.326,14.721 58.069,23.995 C57.753,24.553 57.463,25.126 57.036,25.923 C54.942,24.896 52.99,23.939 50.907,22.916 C54.697,15.119 60.408,9.588 68.351,6.523 C90.344,-1.96 113.642,15.467 111.481,38.938 L111.481,38.938 Z" id="Shape"></path>
                </g>
            </g>
        </g>
    </g>
</svg>