<?xml version="1.0" encoding="utf-8"?>
<!-- Generator: Adobe Illustrator 16.0.0, SVG Export Plug-In . SVG Version: 6.00 Build 0)  -->
<!DOCTYPE svg PUBLIC "-//W3C//DTD SVG 1.1//EN" "http://www.w3.org/Graphics/SVG/1.1/DTD/svg11.dtd">
<svg version="1.1" id="Слой_1" xmlns="http://www.w3.org/2000/svg" xmlns:xlink="http://www.w3.org/1999/xlink" x="0px" y="0px"
	 width="640px" height="480px" viewBox="0 0 640 480" enable-background="new 0 0 640 480" xml:space="preserve">
<g id="Shape_13">
	<g>
		<path fill-rule="evenodd" clip-rule="evenodd" fill="#A98C5A" d="M391.82,196.309c-4.92-0.217-9.863-0.147-14.788,0.022
			c-1.766,0.061-3.529,0.725-5.25,1.261c-0.676,0.21-1.163,0.235-1.863,0.03c-1.987-0.583-4.021-1.244-6.063-1.352
			c-4.173-0.216-8.362-0.085-12.544-0.103c-2.437-0.011-4.776,0.412-7.027,1.385c-0.393,0.17-0.952,0.07-1.402-0.038
			c-0.115-0.027-0.23-0.061-0.345-0.091c-0.939-0.394-1.936-0.692-2.979-0.883c-0.637-0.165-1.274-0.287-1.916-0.309
			c-2.206-0.073-4.417-0.083-6.627-0.052c-2.758,0-5.518,0.056-8.271,0.151c-1.767,0.061-3.53,0.725-5.251,1.261
			c-0.676,0.21-1.162,0.235-1.862,0.03c-1.987-0.583-4.021-1.244-6.064-1.352c-4.172-0.216-8.361-0.085-12.543-0.103
			c-2.437-0.011-4.777,0.412-7.027,1.385c-0.393,0.17-0.953,0.07-1.403-0.038c-0.051-0.012-0.102-0.027-0.153-0.041
			c-1.061-0.457-2.195-0.791-3.391-0.985c-0.563-0.137-1.128-0.238-1.696-0.257c-2.196-0.072-4.397-0.083-6.598-0.053
			c-2.747,0-5.495,0.057-8.236,0.151c-1.767,0.061-3.529,0.725-5.25,1.261c-0.676,0.21-1.163,0.235-1.863,0.03
			c-1.987-0.583-4.021-1.244-6.064-1.352c-4.172-0.216-8.361-0.085-12.543-0.103c-2.437-0.011-4.776,0.412-7.027,1.385
			c-0.393,0.17-0.952,0.07-1.402-0.038c-1.755-0.419-3.483-1.224-5.241-1.282c-5.044-0.166-10.115-0.303-15.142,0.046
			c-6.06,0.421-10.452,3.679-12.631,9.433c-2.142,5.656-0.75,10.725,2.938,14.879c3.294,3.186,6.857,4.728,11.046,4.734
			c4.184,0.007,8.365-0.007,12.548,0.004c2.364,0.007,4.606-0.492,6.771-1.452c0.399-0.178,0.957-0.121,1.411-0.023
			c1.916,0.404,3.806,1.152,5.731,1.25c4.29,0.216,8.597,0.089,12.896,0.158c2.529,0.041,4.93-0.406,7.237-1.462
			c0.395-0.181,0.958-0.112,1.413-0.019c1.955,0.405,3.89,1.158,5.853,1.24c0.123,0.005,0.246,0.006,0.368,0.011v0.004
			c0.11,0,0.219,0.004,0.329,0.005c1.394,0.05,2.789,0.075,4.185,0.085c2.677,0.084,5.353,0.196,8.03,0.203
			c2.365,0.007,4.607-0.492,6.771-1.452c0.399-0.178,0.957-0.121,1.411-0.023c1.915,0.404,3.806,1.152,5.731,1.25
			c1.429,0.071,2.86,0.1,4.292,0.115c-0.656,0.583-1.133,1.371-1.317,2.277c-4.346,1.672-7.226,5.819-7.226,10.5v13.073
			c0,0.588,0.157,1.285,0.668,1.982c-4.162,3.266-6.615,8.271-6.615,13.611c0,9.525,7.71,17.275,17.189,17.275
			c9.479,0,17.188-7.75,17.188-17.275c0-5.344-2.458-10.354-6.625-13.621c0.428-0.576,0.677-1.23,0.677-1.973v-13.073
			c0-4.681-2.88-8.828-7.226-10.5c-0.182-0.896-0.651-1.676-1.296-2.258c1.063,0.001,2.125,0.007,3.187,0.023
			c2.528,0.041,4.93-0.406,7.237-1.462c0.395-0.181,0.957-0.112,1.412-0.019c1.956,0.405,3.89,1.158,5.854,1.24
			c0.144,0.006,0.288,0.007,0.433,0.013v0.002c0.063,0,0.127,0.002,0.19,0.003c1.445,0.053,2.892,0.078,4.339,0.088
			c2.671,0.083,5.342,0.195,8.015,0.202c2.364,0.007,4.606-0.492,6.771-1.452c0.399-0.178,0.957-0.121,1.411-0.023
			c1.916,0.404,3.806,1.152,5.731,1.25c4.29,0.216,8.597,0.089,12.896,0.158c2.528,0.041,4.93-0.406,7.238-1.462
			c0.394-0.181,0.957-0.112,1.412-0.019c1.955,0.405,3.89,1.158,5.853,1.24c4.529,0.189,9.073,0.105,13.61,0.049
			c5.942-0.073,11.391-3.869,13.426-9.255C408.208,206.663,401.71,196.744,391.82,196.309z M227.86,216.533
			c-4.141-0.01-8.282-0.019-12.424-0.038c-2.367-0.012-4.339-0.866-5.583-2.961c-2.119-3.572,0.26-8.254,4.535-8.492
			c4.633-0.258,9.292-0.063,14.115-0.066c-1.584,3.978-1.462,7.721,0.125,11.489C228.311,216.494,228.086,216.533,227.86,216.533z
			 M318.336,266.662c0,8.49-6.872,15.398-15.32,15.398s-15.322-6.908-15.322-15.398c0-4.873,2.294-9.436,6.167-12.34
			c0.475,0.299,1.047,0.586,1.747,0.844c1.97,0.73,4.602,1.133,7.409,1.133c3.491,0,7-0.631,9.147-1.982
			C316.041,257.221,318.336,261.787,318.336,266.662z M312.389,237.996v13.073c0,0.453-0.244,0.881-0.681,1.271
			c-0.048,0.027-0.1,0.047-0.144,0.082c-3.278,2.66-13.822,2.658-17.099,0.002c-0.043-0.035-0.094-0.055-0.142-0.082
			c-0.438-0.391-0.683-0.82-0.683-1.273v-13.073c0-4.065,2.612-7.648,6.5-8.916l0.615-0.201l0.028-0.648
			c0.057-1.218,1.036-2.171,2.231-2.171c1.194,0,2.173,0.953,2.229,2.171l0.029,0.648l0.615,0.201
			C309.776,230.347,312.389,233.93,312.389,237.996z M350.561,198.131c4.495-0.058,8.995-0.028,13.488,0.093
			c1.531,0.042,3.053,0.479,4.732,0.76c-1.272,1.483-2.303,2.713-3.377,3.902c-0.166,0.185-0.544,0.25-0.824,0.249
			c-4.653-0.021-9.307-0.106-13.961-0.09c-0.48,0.002-0.941,0.047-1.389,0.117c-0.968-1.563-2.227-2.946-3.724-4.052
			C347.033,198.486,348.721,198.154,350.561,198.131z M342.096,208.142c0.42,0.822,0.614,1.679,0.63,2.516
			c-0.006,0.15-0.019,0.297-0.019,0.451c0,0.178-0.022,0.351-0.04,0.525c-0.308,1.948-1.638,3.643-3.603,4.321
			c-1.665-3.599-1.763-7.16-0.06-10.584C340.307,205.835,341.373,206.726,342.096,208.142z M350.369,205.26
			c4.592-0.045,9.159-0.091,13.86-0.138c-1.462,3.76-1.484,7.461,0.068,11.063c-4.596,0.052-9.173,0.103-13.899,0.155
			C351.81,212.579,351.813,208.839,350.369,205.26z M296.271,198.131c4.495-0.058,8.994-0.028,13.488,0.093
			c1.531,0.042,3.052,0.479,4.731,0.76c-1.272,1.483-2.302,2.713-3.376,3.902c-0.167,0.185-0.545,0.25-0.824,0.249
			c-4.653-0.021-9.307-0.106-13.961-0.09c-0.459,0.002-0.9,0.045-1.331,0.109c-0.972-1.569-2.238-2.955-3.744-4.062
			C292.772,198.478,294.447,198.154,296.271,198.131z M296.934,213.3c0.069-0.376,0.121-0.752,0.159-1.127
			c0.004-0.038,0.006-0.076,0.01-0.114c0.224-2.36-0.152-4.676-1.017-6.778c-0.003-0.007-0.004-0.014-0.007-0.021
			c4.593-0.045,9.159-0.091,13.861-0.138c-1.463,3.76-1.485,7.461,0.067,11.063c-4.596,0.052-9.172,0.103-13.899,0.155
			C296.49,215.325,296.759,214.311,296.934,213.3z M287.871,208.142c0.331,0.648,0.522,1.317,0.599,1.982
			c-0.032,0.322-0.053,0.649-0.052,0.985c0.001,0.521-0.081,1.022-0.229,1.499c-0.017,0.047-0.031,0.095-0.049,0.142
			c-0.036,0.103-0.083,0.201-0.126,0.302c-0.319,0.708-0.785,1.343-1.374,1.859c-0.066,0.057-0.129,0.116-0.198,0.17
			c-0.101,0.081-0.208,0.154-0.316,0.227c-0.104,0.071-0.21,0.139-0.32,0.204c-0.14,0.082-0.281,0.162-0.43,0.232
			c-0.022,0.011-0.045,0.021-0.068,0.031c-0.168,0.076-0.345,0.141-0.524,0.201c-1.678-3.612-1.773-7.187-0.059-10.623
			C286.051,205.813,287.138,206.707,287.871,208.142z M234.192,211.109c0.004,2.166-1.343,4.032-3.62,4.9
			c-1.855-3.97-1.824-7.896,0.449-11.643c2.485-4.095,6.256-6.176,11.024-6.235c4.495-0.058,8.995-0.028,13.488,0.093
			c1.531,0.042,3.053,0.479,4.732,0.76c-1.273,1.483-2.303,2.713-3.377,3.902c-0.166,0.185-0.544,0.25-0.824,0.249
			c-4.653-0.021-9.307-0.106-13.961-0.09C237.422,203.065,234.185,206.413,234.192,211.109z M241.854,205.26
			c4.593-0.045,9.16-0.091,13.861-0.138c-1.462,3.76-1.484,7.461,0.067,11.063c-4.595,0.052-9.172,0.103-13.898,0.155
			C243.295,212.579,243.299,208.839,241.854,205.26z M267.896,213.708c-1.317,5.352-6.057,9.343-11.623,9.517
			c-4.883,0.152-9.774,0.067-14.661-0.031c-1.383-0.028-2.758-0.477-4.218-0.746c1.181-1.408,2.142-2.601,3.164-3.74
			c0.215-0.24,0.646-0.403,0.977-0.403c4.689,0.006,9.382,0.116,14.072,0.06c4.617-0.056,7.723-3.416,7.773-8.082
			c0.025-2.351,1.419-3.839,3.572-4.908C268.227,208.098,268.602,210.845,267.896,213.708z M269.144,216.189
			c1.429-3.702,1.33-7.408-0.242-11.162c0.414-0.044,0.712-0.104,1.008-0.103c4.18,0.008,8.36-0.003,12.539,0.049
			c0.094,0.001,0.183,0.013,0.276,0.018c-1.552,3.906-1.451,7.587,0.061,11.288c-3.857,0.147-7.733,0.017-11.673-0.056
			c-0.466-0.009-0.93-0.025-1.397-0.027v0.003C269.523,216.196,269.335,216.191,269.144,216.189z M322.122,213.708
			c-1.317,5.352-6.057,9.343-11.623,9.517c-4.883,0.152-9.774,0.067-14.661-0.031c-1.384-0.028-2.759-0.477-4.218-0.746
			c0.571-0.682,1.09-1.311,1.591-1.91c0.407-0.421,0.785-0.866,1.137-1.333c0.145-0.166,0.289-0.334,0.435-0.497
			c0.216-0.24,0.646-0.403,0.977-0.403c4.69,0.006,9.383,0.116,14.073,0.06c4.617-0.056,7.722-3.416,7.772-8.082
			c0.026-2.351,1.42-3.839,3.572-4.908C322.451,208.098,322.826,210.845,322.122,213.708z M323.369,216.189
			c1.429-3.702,1.329-7.408-0.242-11.162c0.414-0.044,0.711-0.104,1.008-0.103c4.18,0.008,8.359-0.003,12.539,0.049
			c0.115,0.001,0.225,0.016,0.338,0.021c-1.55,3.904-1.448,7.583,0.063,11.283c-3.689,0.144-7.395,0.03-11.156-0.045
			c-0.638-0.015-1.275-0.034-1.915-0.037v0.004C323.792,216.197,323.582,216.191,323.369,216.189z M376.411,213.708
			c-1.317,5.352-6.057,9.343-11.623,9.517c-4.883,0.152-9.774,0.067-14.661-0.031c-1.383-0.028-2.758-0.477-4.217-0.746
			c1.18-1.408,2.141-2.601,3.163-3.74c0.215-0.24,0.646-0.403,0.977-0.403c4.69,0.006,9.382,0.116,14.072,0.06
			c4.618-0.056,7.723-3.416,7.773-8.082c0.025-2.351,1.419-3.839,3.572-4.908C376.741,208.098,377.116,210.845,376.411,213.708z
			 M391.722,216.269c-4.638,0.203-9.295-0.033-14.063-0.08c1.429-3.702,1.33-7.408-0.241-11.162
			c0.413-0.044,0.711-0.104,1.008-0.103c4.179,0.008,8.359-0.003,12.538,0.049c2.373,0.029,4.304,0.979,5.423,3.169
			C398.239,211.769,395.888,216.085,391.722,216.269z"/>
	</g>
</g>
</svg>
