<?xml version="1.0" encoding="utf-8"?>
<!-- Generator: Adobe Illustrator 16.0.0, SVG Export Plug-In . SVG Version: 6.00 Build 0)  -->
<!DOCTYPE svg PUBLIC "-//W3C//DTD SVG 1.1//EN" "http://www.w3.org/Graphics/SVG/1.1/DTD/svg11.dtd">
<svg version="1.1" id="Слой_1" xmlns="http://www.w3.org/2000/svg" xmlns:xlink="http://www.w3.org/1999/xlink" x="0px" y="0px"
	 width="640px" height="480px" viewBox="0 0 640 480" enable-background="new 0 0 640 480" xml:space="preserve">
<g id="Shape_12">
	<g>
		<path fill="#A98C5A" d="M338.861,182.501c-11.058,0.406-21.721,6.626-28.615,19.051c-0.695,1.255-1.478,1.953-2.89,2.44
			c-1.21,0.418-2.505,1.527-3.087,2.674c-4.964,9.78-9.804,19.624-14.585,29.496c-0.53,1.094-0.999,2.727-0.56,3.679
			c1.025,2.225-0.169,3.521-1.333,4.931c-1.15,1.391-2.327,2.778-3.645,4.005c-0.649,0.604-1.602,1.013-2.483,1.213
			c-2.582,0.586-4.616,1.875-6.154,4.044c-0.572,0.808-1.286,1.622-2.122,2.119c-8.017,4.773-12.25,14.065-10.493,23.206
			c1.81,9.413,9.054,16.396,18.551,17.882c9.09,1.421,18.534-3.127,22.721-11.451c3.99-7.938,9.859-13.853,17.698-17.816
			c11.518-5.822,23.109-11.499,34.673-17.229c12.976-6.429,20.3-16.788,20.927-31.297
			C378.345,199.077,362.219,182.5,338.861,182.501z M293.234,237.691c4.794-9.637,9.556-19.289,14.359-28.92
			c0.256-0.514,0.801-0.882,1.174-1.278c0.59,0.197,0.972,0.28,1.313,0.448c2.721,1.332,5.422,2.705,8.153,4.017
			c1.547,0.743,1.107,1.776,0.555,2.891c-2.895,5.831-5.781,11.666-8.67,17.5c-1.772,3.581-3.581,7.145-5.297,10.752
			c-0.712,1.497-1.587,1.814-3.063,1.035c-2.508-1.325-5.065-2.556-7.619-3.792C292.903,239.746,292.61,238.945,293.234,237.691z
			 M293.177,244.24c1.936,0.965,3.914,1.95,6.235,3.107c-2.436,3.073-4.727,5.96-6.979,8.802c-1.603-1.945-2.992-3.633-4.425-5.373
			C289.599,248.766,291.343,246.56,293.177,244.24z M283.303,253.856c2.871,0.054,5.132,2.372,5.094,5.224
			c-0.039,2.937-2.461,5.247-5.39,5.143c-2.857-0.102-5.026-2.439-4.96-5.347C278.113,255.983,280.396,253.802,283.303,253.856z
			 M280.836,268.948c0.742-0.43,1.675-0.646,2.542-0.729c3.86-0.371,6.68-2.154,8.311-5.743c0.282-0.621,0.794-1.146,1.243-1.681
			c3.105-3.692,6.205-7.39,9.353-11.046c0.458-0.531,1.109-1.078,1.76-1.225c1.852-0.417,3.158-1.427,3.979-3.085
			c4.895-9.883,9.822-19.75,14.601-29.689c0.559-1.162,0.678-2.873,0.264-4.076c-0.475-1.379-0.167-2.333,0.415-3.407
			c3.749-6.912,10.618-11.012,18.503-11.052c9.838-0.05,18.37,6.695,20.514,16.216c2.181,9.682-2.621,19.385-11.473,23.731
			c-12.794,6.283-25.607,12.542-38.22,19.176c-9.453,4.973-16.466,12.551-21.231,22.156c-1.551,3.127-4.539,4.619-8.02,4.11
			c-2.825-0.412-5.35-2.81-5.96-5.658C276.737,273.784,278.065,270.549,280.836,268.948z M373.481,220.938
			c-1.103,11.982-7.423,20.668-18.23,26.044c-11.961,5.951-23.972,11.805-35.861,17.895c-8.219,4.21-14.437,10.471-18.549,18.867
			c-3.308,6.755-10.467,10.384-18.174,9.698c-6.856-0.609-13.209-5.783-15.355-12.506c-2.247-7.04-0.058-14.806,5.512-19.522
			c0.34-0.287,0.715-0.534,0.978-0.729c1.14,1.937,2.25,3.824,3.45,5.864c-2.649,2.451-4.22,5.681-3.917,9.603
			c0.395,5.126,4.209,9.399,9.055,10.31c5.249,0.986,10.136-1.389,12.553-6.262c3.826-7.715,9.345-13.937,16.546-18.59
			c3.625-2.342,7.432-4.438,11.294-6.37c9.754-4.88,19.557-9.667,29.396-14.371c10.12-4.838,15.776-14.994,14.377-26.145
			c-1.321-10.528-9.609-19.114-20.377-21.107c-10.285-1.904-20.853,3.104-26.11,12.378c-0.316,0.558-0.606,1.131-1.033,1.928
			c-2.094-1.027-4.046-1.984-6.129-3.007c3.79-7.797,9.501-13.328,17.444-16.393C352.344,180.04,375.642,197.467,373.481,220.938z"
			/>
	</g>
</g>
</svg>
