<?xml version="1.0" encoding="UTF-8" standalone="no"?>
<svg width="186px" height="104px" viewBox="0 0 186 104" version="1.1" xmlns="http://www.w3.org/2000/svg" xmlns:xlink="http://www.w3.org/1999/xlink">
    <!-- Generator: Sketch 3.7.2 (28276) - http://www.bohemiancoding.com/sketch -->
    <title>girlyanda</title>
    <desc>Created with Sketch.</desc>
    <defs></defs>
    <g id="Page-1" stroke="none" stroke-width="1" fill="none" fill-rule="evenodd">
        <g id="girlyanda" fill="#A98C5A">
            <g id="Слой_1">
                <g id="Shape_6">
                    <path d="M148.229,83.935 C147.814,83.935 147.477,84.269 147.477,84.681 L147.477,93.186 L145.68,91.405 L143.516,91.405 L145.315,93.186 L40.688,93.186 L42.486,91.405 L40.322,91.405 L38.525,93.186 L38.525,84.681 C38.525,84.269 38.189,83.935 37.774,83.935 C37.359,83.935 37.022,84.269 37.022,84.681 L37.022,103.181 C37.022,103.592 37.359,103.926 37.774,103.926 C38.189,103.926 38.525,103.592 38.525,103.181 L38.525,94.675 L40.322,96.456 L42.486,96.456 L40.688,94.676 L145.313,94.676 L143.515,96.456 L145.679,96.456 L147.476,94.676 L147.476,103.181 C147.476,103.592 147.813,103.926 148.228,103.926 C148.643,103.926 148.98,103.592 148.98,103.181 L148.98,84.681 C148.98,84.269 148.644,83.935 148.229,83.935 L148.229,83.935 Z M185.604,0.517 C185.436,0.141 184.993,-0.026 184.612,0.136 C184.202,0.316 143.037,18.032 93.018,18.036 C93.012,18.036 93.006,18.034 92.999,18.034 C92.992,18.034 92.987,18.036 92.98,18.036 C42.979,18.031 1.796,0.315 1.386,0.136 C1.005,-0.026 0.562,0.141 0.394,0.519 C0.227,0.895 0.399,1.334 0.779,1.5 C0.868,1.539 2.87,2.4 6.453,3.725 C5.761,4.229 5.306,5.036 5.306,5.951 L5.306,9.179 C4.333,9.994 3.76,11.19 3.76,12.46 C3.76,14.833 5.707,16.763 8.102,16.763 C10.496,16.763 12.444,14.833 12.444,12.46 C12.444,11.19 11.869,9.994 10.895,9.179 L10.895,5.951 C10.895,5.718 10.857,5.494 10.802,5.277 C16.477,7.237 24.339,9.7 33.805,12.027 C33.211,12.535 32.826,13.278 32.826,14.115 L32.826,17.162 C31.853,17.977 31.28,19.173 31.28,20.444 C31.28,22.815 33.228,24.746 35.622,24.746 C38.016,24.746 39.963,22.815 39.963,20.444 C39.963,19.173 39.389,17.977 38.415,17.162 L38.415,14.115 C38.415,13.746 38.339,13.394 38.206,13.072 C45.408,14.717 53.408,16.237 61.979,17.388 C61.616,17.855 61.392,18.433 61.392,19.067 L61.392,22.294 C60.419,23.108 59.846,24.306 59.846,25.575 C59.846,27.947 61.794,29.878 64.188,29.878 C66.583,29.878 68.53,27.947 68.53,25.575 C68.53,24.305 67.955,23.108 66.982,22.294 L66.982,19.067 C66.982,18.682 66.902,18.316 66.758,17.983 C74.339,18.854 82.314,19.417 90.546,19.511 C90.337,19.899 90.208,20.334 90.208,20.804 L90.208,23.852 C89.235,24.666 88.661,25.863 88.661,27.133 C88.661,29.505 90.609,31.436 93.003,31.436 C95.397,31.436 97.345,29.505 97.345,27.133 C97.345,25.862 96.77,24.666 95.797,23.851 L95.797,20.804 C95.797,20.334 95.667,19.899 95.458,19.511 C103.689,19.417 111.665,18.854 119.246,17.983 C119.101,18.316 119.021,18.683 119.021,19.067 L119.021,22.114 C118.048,22.928 117.474,24.126 117.474,25.395 C117.474,27.767 119.422,29.697 121.817,29.697 C124.212,29.697 126.159,27.767 126.159,25.395 C126.159,24.124 125.585,22.927 124.61,22.113 L124.61,19.067 C124.61,18.433 124.385,17.856 124.023,17.388 C132.594,16.236 140.594,14.716 147.796,13.071 C147.663,13.394 147.587,13.745 147.587,14.114 L147.587,17.159 C146.613,17.974 146.038,19.171 146.038,20.443 C146.038,22.814 147.986,24.745 150.38,24.745 C152.775,24.745 154.723,22.814 154.723,20.443 C154.723,19.172 154.148,17.976 153.174,17.161 L153.174,14.114 C153.174,13.277 152.789,12.535 152.195,12.027 C161.661,9.7 169.523,7.236 175.199,5.277 C175.143,5.494 175.105,5.717 175.105,5.95 L175.105,8.997 C174.132,9.811 173.558,11.008 173.558,12.279 C173.558,14.651 175.506,16.581 177.9,16.581 C180.295,16.581 182.243,14.651 182.243,12.279 C182.243,11.008 181.668,9.811 180.694,8.997 L180.694,5.95 C180.694,5.035 180.239,4.229 179.547,3.724 C183.13,2.399 185.132,1.537 185.221,1.499 C185.6,1.334 185.771,0.895 185.604,0.517 L185.604,0.517 Z M6.81,5.951 C6.81,5.246 7.389,4.672 8.101,4.672 C8.814,4.672 9.393,5.246 9.393,5.951 L9.393,8.794 L6.811,8.794 L6.811,5.951 L6.81,5.951 Z M10.94,12.46 C10.94,14.012 9.667,15.273 8.102,15.273 C6.537,15.273 5.264,14.012 5.264,12.46 C5.264,11.706 5.572,10.989 6.108,10.464 L10.096,10.464 C10.631,10.989 10.94,11.706 10.94,12.46 L10.94,12.46 Z M34.33,14.115 C34.33,13.41 34.909,12.836 35.621,12.836 C36.333,12.836 36.913,13.41 36.913,14.115 L36.913,16.957 L34.331,16.957 L34.331,14.115 L34.33,14.115 Z M38.46,20.444 C38.46,21.995 37.187,23.257 35.622,23.257 C34.057,23.257 32.783,21.995 32.783,20.444 C32.783,19.689 33.092,18.972 33.627,18.448 L37.616,18.448 C38.151,18.973 38.46,19.689 38.46,20.444 L38.46,20.444 Z M62.895,19.067 C62.895,18.361 63.474,17.787 64.186,17.787 C64.897,17.787 65.477,18.361 65.477,19.067 L65.477,21.909 L62.895,21.909 L62.895,19.067 L62.895,19.067 Z M67.025,25.575 C67.025,27.127 65.752,28.388 64.186,28.388 C62.621,28.388 61.348,27.127 61.348,25.575 C61.348,24.821 61.657,24.103 62.192,23.579 L66.181,23.579 C66.716,24.104 67.025,24.821 67.025,25.575 L67.025,25.575 Z M91.709,20.804 C91.709,20.101 92.286,19.529 92.995,19.526 L93,19.526 L93.004,19.526 C93.713,19.529 94.29,20.101 94.29,20.804 L94.29,23.647 L91.708,23.647 L91.708,20.804 L91.709,20.804 Z M95.839,27.133 C95.839,28.684 94.567,29.946 93.001,29.946 C91.436,29.946 90.163,28.684 90.163,27.133 C90.163,26.378 90.472,25.661 91.007,25.137 L94.996,25.137 C95.53,25.661 95.839,26.378 95.839,27.133 L95.839,27.133 Z M120.523,19.067 C120.523,18.361 121.102,17.787 121.814,17.787 C122.526,17.787 123.105,18.361 123.105,19.067 L123.105,21.909 L120.523,21.909 L120.523,19.067 L120.523,19.067 Z M124.654,25.396 C124.654,26.947 123.381,28.209 121.815,28.209 C120.249,28.209 118.976,26.947 118.976,25.396 C118.976,24.641 119.285,23.924 119.82,23.4 L123.809,23.4 C124.345,23.924 124.654,24.641 124.654,25.396 L124.654,25.396 Z M149.089,14.115 C149.089,13.41 149.668,12.836 150.379,12.836 C151.09,12.836 151.669,13.41 151.669,14.115 L151.669,16.957 L149.089,16.957 L149.089,14.115 L149.089,14.115 Z M152.373,18.448 C152.908,18.972 153.218,19.689 153.218,20.444 C153.218,21.995 151.945,23.257 150.379,23.257 C148.815,23.257 147.541,21.995 147.541,20.444 C147.541,19.689 147.85,18.972 148.384,18.448 L152.373,18.448 L152.373,18.448 Z M176.607,5.951 C176.607,5.246 177.187,4.672 177.899,4.672 C178.611,4.672 179.189,5.246 179.189,5.951 L179.189,8.794 L176.607,8.794 L176.607,5.951 L176.607,5.951 Z M179.894,10.284 C180.43,10.808 180.739,11.525 180.739,12.28 C180.739,13.831 179.466,15.093 177.9,15.093 C176.334,15.093 175.062,13.831 175.062,12.28 C175.062,11.525 175.371,10.808 175.906,10.284 L179.894,10.284 L179.894,10.284 Z" id="Shape"></path>
                </g>
            </g>
        </g>
    </g>
</svg>