<?xml version="1.0" encoding="utf-8"?>
<!-- Generator: Adobe Illustrator 16.0.0, SVG Export Plug-In . SVG Version: 6.00 Build 0)  -->
<!DOCTYPE svg PUBLIC "-//W3C//DTD SVG 1.1//EN" "http://www.w3.org/Graphics/SVG/1.1/DTD/svg11.dtd">
<svg version="1.1" id="Слой_1" xmlns="http://www.w3.org/2000/svg" xmlns:xlink="http://www.w3.org/1999/xlink" x="0px" y="0px"
	 width="640px" height="480px" viewBox="0 0 640 480" enable-background="new 0 0 640 480" xml:space="preserve">
<g>
	<g>
		<path fill-rule="evenodd" clip-rule="evenodd" fill="#B3B3B3" d="M355.681,243.357l-2.626,10.057
			c-0.141,0.533,0.179,1.078,0.709,1.219c0.086,0.021,0.169,0.033,0.253,0.033c0.441,0,0.846-0.297,0.962-0.746l2.626-10.057
			c0.14-0.533-0.18-1.08-0.71-1.219C356.36,242.508,355.82,242.822,355.681,243.357z M350.86,239.852L337.519,265.4
			c-0.257,0.488-0.068,1.092,0.418,1.35c0.146,0.076,0.305,0.113,0.462,0.113c0.357,0,0.703-0.195,0.881-0.535l13.342-25.55
			c0.257-0.488,0.068-1.092-0.418-1.347C351.72,239.176,351.115,239.36,350.86,239.852z M283.513,254.223
			c0.04,0,0.079-0.002,0.12-0.006c0.545-0.066,0.935-0.563,0.869-1.111l-1.143-9.613c-0.066-0.551-0.572-0.939-1.106-0.873
			c-0.544,0.064-0.935,0.563-0.869,1.109l1.144,9.613C282.588,253.85,283.017,254.223,283.513,254.223z M362.271,246.031v12.004
			c0,0.553,0.445,1,0.995,1s0.995-0.447,0.995-1v-12.004c0-0.553-0.445-1-0.995-1S362.271,245.479,362.271,246.031z
			 M293.288,266.863c0.068,0,0.136-0.008,0.204-0.021c0.538-0.111,0.884-0.641,0.771-1.18l-5.292-25.55
			c-0.113-0.541-0.646-0.884-1.176-0.775c-0.538,0.113-0.885,0.642-0.771,1.181l5.292,25.55
			C292.413,266.539,292.828,266.863,293.288,266.863z M394.503,274.416c-0.412,0-0.746,0.336-0.746,0.748v8.555l-1.784-1.793h-2.148
			l1.785,1.791h-57.907l1.784-1.791h-2.148l-1.784,1.793v-8.555c0-0.412-0.334-0.748-0.746-0.748s-0.747,0.336-0.747,0.748v18.604
			c0,0.412,0.335,0.748,0.747,0.748s0.746-0.336,0.746-0.748v-8.551l1.784,1.789h2.148l-1.785-1.791h57.909l-1.786,1.791h2.148
			l1.784-1.789v8.551c0,0.412,0.334,0.748,0.746,0.748s0.746-0.336,0.746-0.748v-18.604
			C395.249,274.752,394.915,274.416,394.503,274.416z M369.633,242.645c-0.531,0.139-0.85,0.686-0.71,1.219l2.626,10.057
			c0.116,0.449,0.519,0.746,0.962,0.746c0.084,0,0.167-0.012,0.253-0.033c0.53-0.141,0.849-0.686,0.709-1.219l-2.626-10.057
			C370.707,242.822,370.171,242.508,369.633,242.645z M258.773,266.863c0.461,0,0.875-0.324,0.973-0.795l5.289-25.55
			c0.113-0.539-0.232-1.069-0.771-1.181c-0.527-0.109-1.065,0.234-1.177,0.775l-5.289,25.55c-0.113,0.539,0.232,1.068,0.771,1.18
			C258.638,266.855,258.706,266.863,258.773,266.863z M277.025,259.602v-13.918c0-0.553-0.445-0.998-0.996-0.998
			c-0.549,0-0.994,0.445-0.994,0.998v13.918c0,0.553,0.445,1,0.994,1C276.58,260.602,277.025,260.154,277.025,259.602z
			 M360.055,193.597c-3.471,1.335-5.772,4.645-5.772,8.382v10.433c0,0.474,0.131,1.039,0.55,1.601
			c-3.326,2.606-5.304,6.584-5.304,10.847c0,7.603,6.163,13.788,13.739,13.788c7.574,0,13.736-6.186,13.736-13.788
			c0-4.264-1.98-8.246-5.311-10.854c0.35-0.465,0.555-0.993,0.555-1.593v-10.433c0-3.735-2.301-7.045-5.774-8.381
			c-0.14-0.703-0.506-1.315-1.008-1.777c20.923-2.088,34.81-4.824,35.031-4.869l-0.291-1.469c-0.36,0.071-36.41,7.181-80.206,7.181
			c-43.789,0-79.847-7.109-80.207-7.181l-0.292,1.469c0.222,0.044,14.108,2.78,35.033,4.869c-0.502,0.462-0.869,1.074-1.011,1.777
			c-3.474,1.334-5.774,4.644-5.774,8.381v10.433c0,0.474,0.131,1.039,0.549,1.601c-3.325,2.606-5.303,6.584-5.303,10.847
			c0,7.603,6.162,13.788,13.738,13.788c7.575,0,13.736-6.186,13.736-13.788c0-4.263-1.98-8.245-5.31-10.853
			c0.351-0.465,0.557-0.994,0.557-1.595v-10.433c0-3.737-2.301-7.047-5.774-8.381c-0.1-0.492-0.315-0.937-0.602-1.321
			c11.964,1.076,25.869,1.886,40.66,1.886s28.695-0.81,40.66-1.886C360.371,192.661,360.156,193.105,360.055,193.597z
			 M288.978,224.858c0,6.776-5.492,12.29-12.244,12.29c-6.753,0-12.246-5.514-12.246-12.29c0-3.892,1.835-7.536,4.933-9.854
			c0.381,0.24,0.83,0.471,1.391,0.678c1.574,0.583,3.677,0.903,5.921,0.903c2.791,0,5.596-0.503,7.312-1.582
			C287.143,217.322,288.978,220.967,288.978,224.858z M284.224,201.979v10.433c0,0.362-0.196,0.705-0.545,1.018
			c-0.038,0.021-0.078,0.036-0.113,0.063c-2.62,2.123-11.048,2.121-13.665,0.001c-0.035-0.028-0.076-0.044-0.114-0.065
			c-0.35-0.313-0.545-0.655-0.545-1.017v-10.433c0-3.245,2.088-6.104,5.194-7.116l0.491-0.161l0.023-0.518
			c0.045-0.972,0.828-1.732,1.783-1.732c0.954,0,1.736,0.761,1.781,1.732l0.023,0.518l0.491,0.161
			C282.137,195.874,284.224,198.733,284.224,201.979z M375.511,224.858c0,6.776-5.491,12.29-12.243,12.29
			c-6.754,0-12.247-5.514-12.247-12.29c0-3.892,1.837-7.537,4.935-9.854c0.381,0.24,0.83,0.47,1.391,0.678
			c1.574,0.583,3.677,0.903,5.92,0.903c2.791,0,5.598-0.503,7.313-1.583C373.676,217.322,375.511,220.967,375.511,224.858z
			 M361.456,194.702l0.025-0.517c0.047-0.973,0.829-1.734,1.784-1.734c0.956,0,1.739,0.76,1.78,1.73l0.023,0.52l0.491,0.16
			c3.108,1.014,5.195,3.873,5.195,7.117v10.433c0,0.362-0.195,0.705-0.546,1.018c-0.038,0.021-0.077,0.036-0.111,0.063
			c-2.617,2.123-11.047,2.123-13.665,0.002c-0.034-0.028-0.074-0.043-0.111-0.065c-0.352-0.313-0.547-0.655-0.547-1.018v-10.433
			c0-3.245,2.085-6.104,5.19-7.117L361.456,194.702z M296.064,274.416c-0.412,0-0.747,0.336-0.747,0.748v8.553l-1.783-1.791h-2.149
			l1.785,1.791h-32.015l1.785-1.791h-2.148l-1.784,1.791v-8.553c0-0.412-0.335-0.748-0.747-0.748s-0.746,0.336-0.746,0.748v18.604
			c0,0.412,0.334,0.748,0.746,0.748s0.747-0.336,0.747-0.748v-8.551l1.784,1.789h2.148l-1.786-1.791h32.018l-1.786,1.791h2.149
			l1.783-1.789v8.551c0,0.412,0.335,0.748,0.747,0.748s0.746-0.336,0.746-0.748v-18.604
			C296.811,274.752,296.477,274.416,296.064,274.416z M268.905,254.223c0.495,0,0.925-0.373,0.985-0.881l1.143-9.613
			c0.066-0.547-0.324-1.045-0.869-1.109c-0.534-0.057-1.039,0.322-1.105,0.873l-1.143,9.613c-0.066,0.549,0.324,1.045,0.869,1.111
			C268.825,254.221,268.864,254.223,268.905,254.223z M374.33,239.431c-0.486,0.255-0.675,0.859-0.418,1.347l13.342,25.55
			c0.177,0.34,0.522,0.535,0.881,0.535c0.157,0,0.314-0.037,0.462-0.113c0.486-0.258,0.675-0.861,0.418-1.35l-13.342-25.548
			C375.418,239.36,374.813,239.176,374.33,239.431z"/>
	</g>
</g>
</svg>
