<?xml version="1.0" encoding="utf-8"?>
<!-- Generator: Adobe Illustrator 16.0.0, SVG Export Plug-In . SVG Version: 6.00 Build 0)  -->
<!DOCTYPE svg PUBLIC "-//W3C//DTD SVG 1.1//EN" "http://www.w3.org/Graphics/SVG/1.1/DTD/svg11.dtd">
<svg version="1.1" id="Слой_1" xmlns="http://www.w3.org/2000/svg" xmlns:xlink="http://www.w3.org/1999/xlink" x="0px" y="0px"
	 width="640px" height="480px" viewBox="0 0 640 480" enable-background="new 0 0 640 480" xml:space="preserve">
<g id="Shape_7_copy">
	<g>
		<path fill-rule="evenodd" clip-rule="evenodd" fill="#A98C5A" d="M371.893,214.596c0.352-0.466,0.557-0.994,0.557-1.595v-10.447
			c0-3.74-2.309-7.054-5.795-8.392c-0.142-0.704-0.508-1.316-1.012-1.778c21.004-2.091,34.941-4.831,35.164-4.875l-0.291-1.47
			c-0.361,0.07-36.551,7.188-80.515,7.188c-43.956,0-80.153-7.118-80.515-7.188l-0.292,1.47c0.223,0.044,14.162,2.784,35.166,4.875
			c-0.504,0.462-0.872,1.075-1.015,1.778c-3.486,1.336-5.796,4.65-5.796,8.392v10.447c0,0.475,0.131,1.04,0.551,1.602
			c-3.337,2.61-5.324,6.593-5.324,10.86c0,7.612,6.187,13.806,13.792,13.806c7.604,0,13.789-6.193,13.789-13.806
			c0-4.269-1.989-8.255-5.331-10.866c0.352-0.466,0.558-0.995,0.558-1.596v-10.447c0-3.741-2.31-7.056-5.796-8.392
			c-0.1-0.493-0.316-0.937-0.604-1.322c12.01,1.077,25.967,1.888,40.815,1.888c14.847,0,28.806-0.811,40.816-1.888
			c-0.289,0.385-0.505,0.829-0.605,1.321c-3.484,1.337-5.795,4.651-5.795,8.393v10.447c0,0.475,0.131,1.04,0.551,1.603
			c-3.338,2.609-5.324,6.593-5.324,10.859c0,7.612,6.188,13.806,13.793,13.806c7.602,0,13.789-6.193,13.789-13.806
			C377.225,221.194,375.236,217.208,371.893,214.596z M288.859,225.463c0,6.785-5.513,12.307-12.29,12.307
			c-6.779,0-12.294-5.521-12.294-12.307c0-3.896,1.842-7.545,4.952-9.866c0.382,0.241,0.833,0.472,1.396,0.679
			c1.58,0.583,3.691,0.904,5.944,0.904c2.8,0,5.616-0.504,7.339-1.583C287.017,217.918,288.859,221.566,288.859,225.463z
			 M284.087,202.554v10.447c0,0.362-0.196,0.705-0.547,1.018c-0.039,0.021-0.079,0.036-0.114,0.064
			c-2.631,2.125-11.09,2.124-13.718,0.001c-0.035-0.028-0.075-0.044-0.114-0.065c-0.351-0.313-0.547-0.656-0.547-1.018v-10.447
			c0-3.248,2.096-6.112,5.214-7.125l0.494-0.161l0.023-0.519c0.044-0.973,0.831-1.734,1.79-1.734c0.957,0,1.742,0.762,1.787,1.734
			l0.023,0.519l0.494,0.161C281.992,196.441,284.087,199.306,284.087,202.554z M355.914,202.554c0-3.248,2.094-6.112,5.211-7.126
			l0.492-0.159l0.025-0.518c0.047-0.974,0.832-1.736,1.789-1.736c0.961,0,1.748,0.761,1.789,1.732l0.021,0.521l0.494,0.16
			c3.119,1.015,5.215,3.879,5.215,7.126v10.447c0,0.363-0.195,0.706-0.549,1.019c-0.037,0.021-0.076,0.036-0.109,0.063
			c-2.629,2.125-11.09,2.125-13.717,0.002c-0.035-0.028-0.076-0.044-0.113-0.065c-0.352-0.313-0.549-0.656-0.549-1.019V202.554z
			 M363.436,237.77c-6.779,0-12.295-5.521-12.295-12.307c0-3.896,1.844-7.545,4.953-9.865c0.383,0.241,0.834,0.471,1.396,0.679
			c1.58,0.583,3.691,0.904,5.941,0.904c2.803,0,5.619-0.504,7.342-1.584c3.109,2.322,4.953,5.972,4.953,9.867
			C375.727,232.248,370.213,237.77,363.436,237.77z M363.432,273.835c-0.412,0-0.748,0.337-0.748,0.75v8.564l-1.791-1.794h-2.156
			l1.792,1.793h-81.056l1.792-1.793h-2.156l-1.791,1.793v-8.563c0-0.413-0.336-0.75-0.749-0.75c-0.414,0-0.75,0.337-0.75,0.75
			v18.626c0,0.414,0.336,0.75,0.75,0.75c0.413,0,0.749-0.336,0.749-0.75v-8.563l1.791,1.793h2.156l-1.792-1.794h81.058l-1.793,1.794
			h2.156l1.791-1.794v8.563c0,0.414,0.336,0.75,0.748,0.75c0.414,0,0.75-0.336,0.75-0.75v-18.626
			C364.182,274.172,363.846,273.835,363.432,273.835z"/>
	</g>
</g>
</svg>
