<?xml version="1.0" encoding="UTF-8" standalone="no"?>
<svg width="162px" height="108px" viewBox="0 0 162 108" version="1.1" xmlns="http://www.w3.org/2000/svg" xmlns:xlink="http://www.w3.org/1999/xlink">
    <!-- Generator: Sketch 3.7.2 (28276) - http://www.bohemiancoding.com/sketch -->
    <title>lampochki2</title>
    <desc>Created with Sketch.</desc>
    <defs></defs>
    <g id="Page-1" stroke="none" stroke-width="1" fill="none" fill-rule="evenodd">
        <g id="lampochki2" fill="#A98C5A">
            <g id="Слой_1">
                <g id="Shape_7_copy">
                    <path d="M132.893,28.596 C133.245,28.13 133.45,27.602 133.45,27.001 L133.45,16.554 C133.45,12.814 131.141,9.5 127.655,8.162 C127.513,7.458 127.147,6.846 126.643,6.384 C147.647,4.293 161.584,1.553 161.807,1.509 L161.516,0.039 C161.155,0.109 124.965,7.227 81.001,7.227 C37.045,7.227 0.848,0.109 0.486,0.039 L0.194,1.509 C0.417,1.553 14.356,4.293 35.36,6.384 C34.856,6.846 34.488,7.459 34.345,8.162 C30.859,9.498 28.549,12.812 28.549,16.554 L28.549,27.001 C28.549,27.476 28.68,28.041 29.1,28.603 C25.763,31.213 23.776,35.196 23.776,39.463 C23.776,47.075 29.963,53.269 37.568,53.269 C45.172,53.269 51.357,47.076 51.357,39.463 C51.357,35.194 49.368,31.208 46.026,28.597 C46.378,28.131 46.584,27.602 46.584,27.001 L46.584,16.554 C46.584,12.813 44.274,9.498 40.788,8.162 C40.688,7.669 40.472,7.225 40.184,6.84 C52.194,7.917 66.151,8.728 80.999,8.728 C95.846,8.728 109.805,7.917 121.815,6.84 C121.526,7.225 121.31,7.669 121.21,8.161 C117.726,9.498 115.415,12.812 115.415,16.554 L115.415,27.001 C115.415,27.476 115.546,28.041 115.966,28.604 C112.628,31.213 110.642,35.197 110.642,39.463 C110.642,47.075 116.83,53.269 124.435,53.269 C132.037,53.269 138.224,47.076 138.224,39.463 C138.225,35.194 136.236,31.208 132.893,28.596 L132.893,28.596 Z M49.859,39.463 C49.859,46.248 44.346,51.77 37.569,51.77 C30.79,51.77 25.275,46.249 25.275,39.463 C25.275,35.567 27.117,31.918 30.227,29.597 C30.609,29.838 31.06,30.069 31.623,30.276 C33.203,30.859 35.314,31.18 37.567,31.18 C40.367,31.18 43.183,30.676 44.906,29.597 C48.017,31.918 49.859,35.566 49.859,39.463 L49.859,39.463 Z M45.087,16.554 L45.087,27.001 C45.087,27.363 44.891,27.706 44.54,28.019 C44.501,28.04 44.461,28.055 44.426,28.083 C41.795,30.208 33.336,30.207 30.708,28.084 C30.673,28.056 30.633,28.04 30.594,28.019 C30.243,27.706 30.047,27.363 30.047,27.001 L30.047,16.554 C30.047,13.306 32.143,10.442 35.261,9.429 L35.755,9.268 L35.778,8.749 C35.822,7.776 36.609,7.015 37.568,7.015 C38.525,7.015 39.31,7.777 39.355,8.749 L39.378,9.268 L39.872,9.429 C42.992,10.441 45.087,13.306 45.087,16.554 L45.087,16.554 Z M116.914,16.554 C116.914,13.306 119.008,10.442 122.125,9.428 L122.617,9.269 L122.642,8.751 C122.689,7.777 123.474,7.015 124.431,7.015 C125.392,7.015 126.179,7.776 126.22,8.747 L126.241,9.268 L126.735,9.428 C129.854,10.443 131.95,13.307 131.95,16.554 L131.95,27.001 C131.95,27.364 131.755,27.707 131.401,28.02 C131.364,28.041 131.325,28.056 131.292,28.083 C128.663,30.208 120.202,30.208 117.575,28.085 C117.54,28.057 117.499,28.041 117.462,28.02 C117.11,27.707 116.913,27.364 116.913,27.001 L116.913,16.554 L116.914,16.554 Z M124.436,51.77 C117.657,51.77 112.141,46.249 112.141,39.463 C112.141,35.567 113.985,31.918 117.094,29.598 C117.477,29.839 117.928,30.069 118.49,30.277 C120.07,30.86 122.181,31.181 124.431,31.181 C127.234,31.181 130.05,30.677 131.773,29.597 C134.882,31.919 136.726,35.569 136.726,39.464 C136.727,46.248 131.213,51.77 124.436,51.77 L124.436,51.77 Z M124.432,87.835 C124.02,87.835 123.684,88.172 123.684,88.585 L123.684,97.149 L121.893,95.355 L119.737,95.355 L121.529,97.148 L40.473,97.148 L42.265,95.355 L40.109,95.355 L38.318,97.148 L38.318,88.585 C38.318,88.172 37.982,87.835 37.569,87.835 C37.155,87.835 36.819,88.172 36.819,88.585 L36.819,107.211 C36.819,107.625 37.155,107.961 37.569,107.961 C37.982,107.961 38.318,107.625 38.318,107.211 L38.318,98.648 L40.109,100.441 L42.265,100.441 L40.473,98.647 L121.531,98.647 L119.738,100.441 L121.894,100.441 L123.685,98.647 L123.685,107.21 C123.685,107.624 124.021,107.96 124.433,107.96 C124.847,107.96 125.183,107.624 125.183,107.21 L125.183,88.584 C125.182,88.172 124.846,87.835 124.432,87.835 L124.432,87.835 Z" id="Shape"></path>
                </g>
            </g>
        </g>
    </g>
</svg>