<?xml version="1.0" encoding="UTF-8" standalone="no"?>
<svg width="162px" height="110px" viewBox="0 0 162 110" version="1.1" xmlns="http://www.w3.org/2000/svg" xmlns:xlink="http://www.w3.org/1999/xlink">
    <!-- Generator: Sketch 3.7.2 (28276) - http://www.bohemiancoding.com/sketch -->
    <title>lampochki1</title>
    <desc>Created with Sketch.</desc>
    <defs></defs>
    <g id="Page-1" stroke="none" stroke-width="1" fill="none" fill-rule="evenodd">
        <g id="lampochki1" fill="#A98C5A">
            <g id="Слой_1">
                <path d="M116.681,58.357 L114.055,68.414 C113.914,68.947 114.234,69.492 114.764,69.633 C114.85,69.654 114.933,69.666 115.017,69.666 C115.458,69.666 115.863,69.369 115.979,68.92 L118.605,58.863 C118.745,58.33 118.425,57.783 117.895,57.644 C117.36,57.508 116.82,57.822 116.681,58.357 L116.681,58.357 Z M111.86,54.852 L98.519,80.4 C98.262,80.888 98.451,81.492 98.937,81.75 C99.083,81.826 99.242,81.863 99.399,81.863 C99.756,81.863 100.102,81.668 100.28,81.328 L113.622,55.778 C113.879,55.29 113.69,54.686 113.204,54.431 C112.72,54.176 112.115,54.36 111.86,54.852 L111.86,54.852 Z M44.513,69.223 C44.553,69.223 44.592,69.221 44.633,69.217 C45.178,69.151 45.568,68.654 45.502,68.106 L44.359,58.493 C44.293,57.942 43.787,57.554 43.253,57.62 C42.709,57.684 42.318,58.183 42.384,58.729 L43.528,68.342 C43.588,68.85 44.017,69.223 44.513,69.223 L44.513,69.223 Z M123.271,61.031 L123.271,73.035 C123.271,73.588 123.716,74.035 124.266,74.035 C124.816,74.035 125.261,73.588 125.261,73.035 L125.261,61.031 C125.261,60.478 124.816,60.031 124.266,60.031 C123.716,60.031 123.271,60.479 123.271,61.031 L123.271,61.031 Z M54.288,81.863 C54.356,81.863 54.424,81.855 54.492,81.842 C55.03,81.731 55.376,81.201 55.263,80.662 L49.971,55.112 C49.858,54.571 49.325,54.228 48.795,54.337 C48.257,54.45 47.91,54.979 48.024,55.518 L53.316,81.068 C53.413,81.539 53.828,81.863 54.288,81.863 L54.288,81.863 Z M155.503,89.416 C155.091,89.416 154.757,89.752 154.757,90.164 L154.757,98.719 L152.973,96.926 L150.825,96.926 L152.61,98.717 L94.703,98.717 L96.487,96.926 L94.339,96.926 L92.555,98.719 L92.555,90.164 C92.555,89.752 92.221,89.416 91.809,89.416 C91.397,89.416 91.062,89.752 91.062,90.164 L91.062,108.768 C91.062,109.18 91.397,109.516 91.809,109.516 C92.221,109.516 92.555,109.18 92.555,108.768 L92.555,100.217 L94.339,102.006 L96.487,102.006 L94.702,100.215 L152.611,100.215 L150.825,102.006 L152.973,102.006 L154.757,100.217 L154.757,108.768 C154.757,109.18 155.091,109.516 155.503,109.516 C155.915,109.516 156.249,109.18 156.249,108.768 L156.249,90.164 C156.249,89.752 155.915,89.416 155.503,89.416 L155.503,89.416 Z M130.633,57.645 C130.102,57.784 129.783,58.331 129.923,58.864 L132.549,68.921 C132.665,69.37 133.068,69.667 133.511,69.667 C133.595,69.667 133.678,69.655 133.764,69.634 C134.294,69.493 134.613,68.948 134.473,68.415 L131.847,58.358 C131.707,57.822 131.171,57.508 130.633,57.645 L130.633,57.645 Z M19.773,81.863 C20.234,81.863 20.648,81.539 20.746,81.068 L26.035,55.518 C26.148,54.979 25.803,54.449 25.264,54.337 C24.737,54.228 24.199,54.571 24.087,55.112 L18.798,80.662 C18.685,81.201 19.03,81.73 19.569,81.842 C19.638,81.855 19.706,81.863 19.773,81.863 L19.773,81.863 Z M38.025,74.602 L38.025,60.684 C38.025,60.131 37.58,59.686 37.029,59.686 C36.48,59.686 36.035,60.131 36.035,60.684 L36.035,74.602 C36.035,75.155 36.48,75.602 37.029,75.602 C37.58,75.602 38.025,75.154 38.025,74.602 L38.025,74.602 Z M121.055,8.597 C117.584,9.932 115.283,13.242 115.283,16.979 L115.283,27.412 C115.283,27.886 115.414,28.451 115.833,29.013 C112.507,31.619 110.529,35.597 110.529,39.86 C110.529,47.463 116.692,53.648 124.268,53.648 C131.842,53.648 138.004,47.462 138.004,39.86 C138.004,35.596 136.024,31.614 132.693,29.006 C133.043,28.541 133.248,28.013 133.248,27.413 L133.248,16.98 C133.248,13.245 130.947,9.935 127.474,8.599 C127.334,7.896 126.968,7.284 126.466,6.822 C147.389,4.734 161.276,1.998 161.497,1.953 L161.206,0.484 C160.846,0.555 124.796,7.665 81,7.665 C37.211,7.665 1.153,0.556 0.793,0.484 L0.501,1.953 C0.723,1.997 14.609,4.733 35.534,6.822 C35.032,7.284 34.665,7.896 34.523,8.599 C31.049,9.933 28.749,13.243 28.749,16.98 L28.749,27.413 C28.749,27.887 28.88,28.452 29.298,29.014 C25.973,31.62 23.995,35.598 23.995,39.861 C23.995,47.464 30.157,53.649 37.733,53.649 C45.308,53.649 51.469,47.463 51.469,39.861 C51.469,35.598 49.489,31.616 46.159,29.008 C46.51,28.543 46.716,28.014 46.716,27.413 L46.716,16.98 C46.716,13.243 44.415,9.933 40.942,8.599 C40.842,8.107 40.627,7.662 40.34,7.278 C52.304,8.354 66.209,9.164 81,9.164 C95.791,9.164 109.695,8.354 121.66,7.278 C121.371,7.661 121.156,8.105 121.055,8.597 L121.055,8.597 Z M49.978,39.858 C49.978,46.634 44.486,52.148 37.734,52.148 C30.981,52.148 25.488,46.634 25.488,39.858 C25.488,35.966 27.323,32.322 30.421,30.004 C30.802,30.244 31.251,30.475 31.812,30.682 C33.386,31.265 35.489,31.585 37.733,31.585 C40.524,31.585 43.329,31.082 45.045,30.003 C48.143,32.322 49.978,35.967 49.978,39.858 L49.978,39.858 Z M45.224,16.979 L45.224,27.412 C45.224,27.774 45.028,28.117 44.679,28.43 C44.641,28.451 44.601,28.466 44.566,28.493 C41.946,30.616 33.518,30.614 30.901,28.494 C30.866,28.466 30.825,28.45 30.787,28.429 C30.437,28.116 30.242,27.774 30.242,27.412 L30.242,16.979 C30.242,13.734 32.33,10.875 35.436,9.863 L35.927,9.702 L35.95,9.184 C35.995,8.212 36.778,7.452 37.733,7.452 C38.687,7.452 39.469,8.213 39.514,9.184 L39.537,9.702 L40.028,9.863 C43.137,10.874 45.224,13.733 45.224,16.979 L45.224,16.979 Z M136.511,39.858 C136.511,46.634 131.02,52.148 124.268,52.148 C117.514,52.148 112.021,46.634 112.021,39.858 C112.021,35.966 113.858,32.321 116.956,30.004 C117.337,30.244 117.786,30.474 118.347,30.682 C119.921,31.265 122.024,31.585 124.267,31.585 C127.058,31.585 129.865,31.082 131.58,30.002 C134.676,32.322 136.511,35.967 136.511,39.858 L136.511,39.858 Z M122.456,9.702 L122.481,9.185 C122.528,8.212 123.31,7.451 124.265,7.451 C125.221,7.451 126.004,8.211 126.045,9.181 L126.068,9.701 L126.559,9.861 C129.667,10.875 131.754,13.734 131.754,16.978 L131.754,27.411 C131.754,27.773 131.559,28.116 131.208,28.429 C131.17,28.45 131.131,28.465 131.097,28.492 C128.48,30.615 120.05,30.615 117.432,28.494 C117.398,28.466 117.358,28.451 117.321,28.429 C116.969,28.116 116.774,27.774 116.774,27.411 L116.774,16.978 C116.774,13.733 118.859,10.874 121.964,9.861 L122.456,9.702 L122.456,9.702 Z M57.064,89.416 C56.652,89.416 56.317,89.752 56.317,90.164 L56.317,98.717 L54.534,96.926 L52.385,96.926 L54.17,98.717 L22.155,98.717 L23.94,96.926 L21.792,96.926 L20.008,98.717 L20.008,90.164 C20.008,89.752 19.673,89.416 19.261,89.416 C18.849,89.416 18.515,89.752 18.515,90.164 L18.515,108.768 C18.515,109.18 18.849,109.516 19.261,109.516 C19.673,109.516 20.008,109.18 20.008,108.768 L20.008,100.217 L21.792,102.006 L23.94,102.006 L22.154,100.215 L54.172,100.215 L52.386,102.006 L54.535,102.006 L56.318,100.217 L56.318,108.768 C56.318,109.18 56.653,109.516 57.065,109.516 C57.477,109.516 57.811,109.18 57.811,108.768 L57.811,90.164 C57.811,89.752 57.477,89.416 57.064,89.416 L57.064,89.416 Z M29.905,69.223 C30.4,69.223 30.83,68.85 30.89,68.342 L32.033,58.729 C32.099,58.182 31.709,57.684 31.164,57.62 C30.63,57.563 30.125,57.942 30.059,58.493 L28.916,68.106 C28.85,68.655 29.24,69.151 29.785,69.217 C29.825,69.221 29.864,69.223 29.905,69.223 L29.905,69.223 Z M135.33,54.431 C134.844,54.686 134.655,55.29 134.912,55.778 L148.254,81.328 C148.431,81.668 148.776,81.863 149.135,81.863 C149.292,81.863 149.449,81.826 149.597,81.75 C150.083,81.492 150.272,80.889 150.015,80.4 L136.673,54.852 C136.418,54.36 135.813,54.176 135.33,54.431 L135.33,54.431 Z" id="Shape"></path>
            </g>
        </g>
    </g>
</svg>