<?xml version="1.0" encoding="iso-8859-1"?>
<!-- Generator: Adobe Illustrator 19.2.0, SVG Export Plug-In . SVG Version: 6.00 Build 0)  -->
<svg version="1.1" id="Layer_1" xmlns="http://www.w3.org/2000/svg" xmlns:xlink="http://www.w3.org/1999/xlink" x="0px" y="0px"
	 viewBox="0 0 189.806 312" style="enable-background:new 0 0 189.806 312;" xml:space="preserve">
<g>
	<polygon style="fill:#A8A8A8;" points="93.333,20.996 94.645,20.1 94.645,19.099 88.538,19.099 88.538,20.1 89.848,20.996 
		89.848,29.966 84.26,29.966 84.26,20.996 85.571,20.1 85.571,19.099 79.463,19.099 79.463,20.1 80.776,20.996 80.776,41.455 
		79.223,42.282 79.223,43.283 85.813,43.283 85.813,42.282 84.26,41.455 84.26,31.933 89.848,31.933 89.848,41.455 88.331,42.282 
		88.331,43.283 94.885,43.283 94.885,42.282 93.333,41.455 	"/>
	<path style="fill:#A8A8A8;" d="M101.786,26.723v-2.932c0-1.656,0.828-2.657,2.449-2.657s2.553,0.932,2.553,2.657v1.759h3.555
		c0-2.173,0-4.347,0-6.485h-2.346l-0.277,1.311h-0.137c-1.139-1.276-2.555-1.553-3.934-1.553c-2.795,0-5.451,1.346-5.451,4.969
		v2.932c0,6.038,8.729,4.21,8.729,8.729v2.932c0,1.726-0.793,2.933-2.623,2.933c-1.551,0-2.449-0.862-2.449-2.933v-1.932h-3.898
		v1.897c0,3.691,2.863,5.313,6.176,5.313c3.277,0,6.451-1.449,6.451-5.279v-2.967C110.583,29.034,101.786,30.897,101.786,26.723z"/>
	<path style="fill:#A8A8A8;" d="M52.335,65.562c0.217,0,0.526-0.114,0.75-0.657c0.232-0.566,0.398-1.359,0.547-2.054
		c0.047-0.226,0.094-0.436,0.135-0.617l0.033-0.121c0.111-0.418,0.266-0.991-0.549-1.908c-1.37-1.543-3.824-4.13-4.865-4.128
		c-0.305,0.001-0.56,0.194-0.633,0.479c-0.324,1.243,2.924,6.839,3.928,8.523C51.876,65.404,52.091,65.562,52.335,65.562z"/>
	<path style="fill:#A8A8A8;" d="M57.415,73.975c0.284,0.412,0.563,0.821,0.836,1.228c0.021,0.032,0.047,0.076,0.077,0.123
		c0.179,0.296,0.423,0.7,0.825,0.7c0.329-0.001,0.61-0.239,0.834-0.705c0.5-1.049,0.662-1.795,0.889-2.831
		c0.06-0.273,0.124-0.567,0.201-0.896c0.037-0.161,0.076-0.308,0.113-0.442c0.205-0.764,0.354-1.314-0.377-2.179l-0.195-0.229
		c-1.396-1.648-2.84-3.354-4.264-4.972c-0.234-0.265-0.719-0.239-1.052,0.04c-0.19,0.159-0.311,0.376-0.332,0.598
		c-0.062,0.631-0.205,1.18-0.356,1.759c-0.09,0.344-0.18,0.686-0.252,1.045c-0.014,0.071-0.034,0.147-0.053,0.227
		c-0.123,0.48-0.289,1.143,0.198,2.006C55.392,71.013,56.421,72.519,57.415,73.975z"/>
	<path style="fill:#A8A8A8;" d="M61.096,79.088c2.565,3.608,3.46,4.744,4.06,4.83c0.105,0.014,0.221,0.021,0.338,0.021
		c1.221-0.003,2.925-0.801,3.799-1.778c0.493-0.55,0.672-1.094,0.516-1.574c-0.282-0.877-2.873-4.47-5.897-8.182
		c-0.244-0.302-0.824-0.295-1.193,0c-0.17,0.139-0.284,0.319-0.316,0.513c-0.154,0.936-0.505,2.688-1.137,3.909
		C60.569,78.168,60.8,78.678,61.096,79.088z"/>
	<path style="fill:#A8A8A8;" d="M57.635,111.562c2.485,0.052,4.18-1.036,6.015-2.38c2.857-2.091,5.465-1.755,7.38-1.543
		c3.058,0.338,5.132,0.625,8.22,0.111c3.667-0.61,7.539-2.085,10.354-4.574c1.521-1.345,2.512-4.031,0.902-6.178
		c-1.087-1.448-7.694,0.691-10.762-0.241c-0.205-0.062-0.393-0.138-0.564-0.229c-0.955-0.513-1.497-0.967-1.788-1.466
		c-0.233-0.4-0.306-0.829-0.302-1.343c0.008-0.898,0.252-2.053,0.287-3.755c0.007-0.339,0.019-0.826,0.02-1.401
		c0.009-3.102-0.264-8.743-2.979-7.221c-1.427,0.797-2.72,1.826-3.973,2.891c-0.525,0.446-1.046,0.896-1.563,1.341
		c-2.501,2.155-5.054,4.234-7.628,6.304c-1.13,0.908-2.268,1.807-3.458,2.637c-0.482,0.336-0.971,0.664-1.474,0.971
		c-1.769,1.083-3.882,1.613-5.568,2.835c-1.161,0.841-1.657,2.077-1.89,3.402c-0.01,0.055-0.023,0.108-0.032,0.163
		c-0.002,0.016-0.004,0.033-0.006,0.049c-0.069,0.446-0.111,0.901-0.139,1.352c-0.019,0.305-0.022,0.608-0.009,0.906
		c0.088,2.09,0.939,3.997,2.539,5.465c0.516,0.472,1.073,0.815,1.655,1.08C54.327,111.401,55.961,111.525,57.635,111.562z"/>
	<path style="fill:#A8A8A8;" d="M139.683,165.541c0.074-1.119,0.211-2.234,0.408-3.349c0.194-1.097,0.455-2.243,0.64-3.397
		c0.376-2.308,0.633-4.639,0.555-7.022c-0.058-1.19-0.167-2.401-0.619-3.618c-1.413-3.807-7.379-2.204-10.226-1.414
		c-0.592,0.168-1.179,0.358-1.759,0.574c0.517-0.193,1.065-0.96,1.515-1.305c0.399-0.306,0.832-0.562,1.23-0.863
		c1.311-0.991,1.377-2.32,0.789-3.764c-0.513-1.207-1.267-2.201-2.074-3.113c-0.405-0.456-0.833-0.885-1.275-1.295
		c-0.432-0.403-0.844-0.785-1.25-1.193c-0.818-0.806-1.615-1.641-2.392-2.496c-1.557-1.708-3.053-3.481-4.471-5.303
		c-0.698-0.912-1.406-1.847-1.987-2.774c-0.072-0.114-0.137-0.23-0.188-0.331c-0.03-0.054-0.047-0.094-0.063-0.137l-0.015-0.039
		l-0.028-0.072c-0.045-0.093-0.064-0.154-0.166-0.282c-0.016-0.021-0.059-0.068-0.096-0.102c-0.035-0.032-0.085-0.073-0.16-0.112
		c-0.119-0.074-0.359-0.126-0.532-0.085c-0.356,0.091-0.427,0.233-0.507,0.307c-0.129,0.162-0.168,0.259-0.214,0.354
		c-0.083,0.19-0.134,0.345-0.181,0.502c-0.182,0.617-0.291,1.199-0.398,1.788c-0.205,1.176-0.357,2.345-0.473,3.521
		c-0.125,1.175-0.175,2.37-0.246,3.514c-0.159,2.281-0.422,4.589-1.43,6.53c-0.502,0.959-1.209,1.786-2.119,2.315
		c-0.454,0.268-0.951,0.465-1.47,0.602c-0.515,0.125-1.083,0.206-1.589,0.204c-1.043-0.003-2.001-0.473-2.659-1.306
		c-0.669-0.823-1.072-1.896-1.34-2.986c-0.401-1.739-0.53-3.572-0.484-5.389c0.243-0.578,0.488-1.155,0.731-1.734l0.02-0.045
		c0.508-0.857-0.76-3.11-3.732-6.638c-2.063-2.445-3.347-4.612-3.751-6.248c0.136,0.095,0.268,0.189,0.404,0.282l1.45,1.003
		c0.475,0.354,0.934,0.723,1.402,1.084l0.697,0.545c0.229,0.186,0.445,0.387,0.669,0.577c0.435,0.394,0.901,0.758,1.313,1.175
		c0.409,0.418,0.857,0.806,1.238,1.238c0.397,0.414,0.798,0.868,1.11,1.279l0.029,0.04c0.051,0.064,0.113,0.123,0.184,0.169
		c0.349,0.229,0.811,0.131,1.039-0.215l3.617-5.511l0.225-0.347c0.09-0.148,0.138-0.244,0.209-0.373l0.394-0.719l0.79-1.434
		l1.469-2.668c1.152-1.764,2.255-5.613-4.039-11.03c-2.46-2.116-3.469-3.725-3.779-5.022l0.431,0.105l1.048,0.294l1.048,0.293
		l1.073,0.263c0.359,0.083,0.716,0.181,1.077,0.254l1.09,0.205c1.463,0.233,2.938,0.457,4.534,0.266
		c0.396-0.032,0.812-0.151,1.223-0.288c0.207-0.102,0.42-0.192,0.619-0.319l0.294-0.235c0.102-0.073,0.188-0.167,0.267-0.276
		c0.354-0.398,0.501-0.94,0.544-1.396c0.027-0.234,0.018-0.45,0.01-0.648l-0.01-0.142l-0.009-0.107l-0.008-0.068l-0.037-0.269
		c-0.085-0.706-0.25-1.487-0.383-2.204c-0.152-0.713-0.287-1.434-0.453-2.143c-0.314-1.426-0.662-2.842-1.068-4.256
		c-0.835-2.86-1.813-5.939-4.081-8.011c-2.156-1.97-4.881-3.362-7.726-4.008c-0.951-0.216-1.939-0.337-2.912-0.37
		c-1.114-0.042-2.191,0.177-3.201,0.527c-0.217,0.074-0.428,0.169-0.637,0.262c0.195-0.545,0.352-1.035,0.453-1.443
		c0.696-2.782,0.027-5.02-0.002-5.114c-0.03-0.093-0.109-0.164-0.206-0.179c-0.041-0.005-4.556-0.689-11.2-0.517
		c-6.656,0.169-10.762,1.543-10.8,1.557c-0.104,0.035-0.173,0.13-0.177,0.237c-0.001,0.052-0.108,5.156,1.555,11.06
		c1.635,5.81,0.943,11.679,0.938,11.737c-0.01,0.075,0.012,0.148,0.063,0.203c0.049,0.056,0.117,0.086,0.195,0.086l12.011-0.172
		c0.129-0.001,0.235-0.097,0.252-0.223c0,0,0.296-0.525,0.392-0.721c1.208-2.414,2.787-4.135,4.713-5.169
		c-0.457,0.63-0.875,1.289-1.249,1.972c-1.68,2.801-2.041,4.999-2.05,5.048c-0.005,0.029-0.002,0.062,0.004,0.092
		c0,0,0.516,4.021,0.518,4.547c0.006,1.632,0.663,2.289,1.832,2.798c-0.77-0.09-2.785-0.378-3.894,0.136
		c-1.578,1.5-6.656,5.328-7.55,6.007c-1.996,1.511-5.81,3.833-3.68,6.811c1.153,1.617,3.202,3.058,4.642,4.174
		c-3.762-1.171-6.814-1.478-8.941-1.478c-1.423,0-3.009-0.206-4.309,0.498c-1.491,0.808-2.538,2.824-3.607,4.106
		c-1.473,1.762-2.944,3.529-4.418,5.298c-0.832,1-1.65,2.022-2.502,3.007c-1.014,1.168-2.023,2.34-3.037,3.512
		c-0.585,0.678-2.42,2.098-1.796,3.099c0.645,1.041,2.039,1.337,3.146,1.563c1.745,0.354,3.529,0.514,5.302,0.652
		c2.147,0.166,3.484,0.317,5.131,1.001c-9.758,0.43-17.174,4.348-17.246,4.393c-0.093,0.056-0.159,0.149-0.18,0.257
		c-0.006,0.021-0.537,4.856-0.435,10.442c0.029,1.614,0.24,3.239,0.443,4.744c0.261,1.92,0.694,4.229,1,5.73
		c0.299,1.477,0.674,2.481,1.229,2.506c0.667,0,1.796-0.815,3.357-1.558c3.319-1.578,8.871-4.219,15.685-4.219
		c4.527,0,7.701,0.614,3.609,0.542c-15.059-0.261-20.468,6.405-21.191,8.58c-0.434,1.301,0.646,3.47,1.975,5.419
		c0.717,1.056,2.15,3.112,3.538,5.106c1.439,2.067,3.974,5.957,4.629,6.361c2.114,1.313,4.933,1.979,8.37,1.979
		c0,0,0.117,0.004,0.245,0.011c-0.696,0.723-1.261,1.6-1.364,2.081c-0.102,0.463,0.104,0.686,0.236,0.779
		c0.561,0.387,2.491,2.097,4.535,3.911c4.23,3.749,8.457,7.403,13.973,9.061c1.24,0.371,2.492,0.706,3.759,0.981
		c1.64,0.354,3.28,0.452,5.017,0.557c0.398,0.024,0.799,0.009,1.203-0.025c-1.096,0.477-2.697,1.237-3.01,2.505
		c-0.23,0.927,0.15,1.939,0.388,2.842c0.29,1.088,0.595,2.173,0.907,3.256c0.629,2.178,1.26,4.366,1.986,6.515
		c0.16,0.47,0.341,1.511,0.74,1.854c-0.032-0.026,0.308,0.268,0.36,0.206c-0.008,0.109-0.055,0.33-0.103,0.44
		c-2.094,4.786-0.607,12.035-0.188,16.009c0.313,2.58,0.002,6.683-0.449,8.412c-0.824,3.15-2.521,5.661-4.082,7.432
		c-4.066,4.619-10.463,7.771-15.914,7.844h-0.254c-9.11,0-15.463-6.01-16.99-16.075c-0.732-4.819,0.91-8.608,4.88-11.259
		c2.313-1.546,4.792-2.25,5.863-2.504c0.772-0.107,1.478-0.172,2.172-0.172c2.168,0,4.023,0.669,6.205,2.236
		c2.132,1.535,3.29,4.006,3.398,6.583c0.079,1.894-0.032,4.491-1.198,6.08c-0.581,0.79-1.826,1.54-2.826,1.598
		c-1.458,0.083-2.964-0.228-4.114-1.04c0.011-0.016,0.023-0.031,0.031-0.047c0.133-0.312,0.265-0.62,0.37-0.939
		c0.106-0.316,0.218-0.632,0.304-0.954c0.185-0.643,0.332-1.292,0.461-1.942c0.125-0.652,0.234-1.305,0.325-1.959
		c0.05-0.325,0.077-0.656,0.107-0.986c0.024-0.33,0.045-0.661-0.039-1.008c-0.059-0.209-0.252-0.325-0.416-0.395
		c-0.171-0.072-0.35-0.112-0.525-0.143c-0.354-0.068-0.714-0.086-1.072-0.097c-0.713-0.016-1.431,0.028-2.148,0.129
		c-0.715,0.112-1.435,0.27-2.123,0.66c-0.167,0.103-0.334,0.223-0.486,0.38c-0.149,0.148-0.297,0.377-0.36,0.588l-0.334,1.021
		c-0.421,1.377-0.743,2.826-0.671,4.351c0.042,0.76,0.439,3.183,1.93,4.178c2.783,1.86,5.586,2.276,8.002,2.276
		c5.32,0,16.388-7.636,10.256-22.956c-2.192-5.479-7.523-8.695-14.26-9.385c-0.586-0.061-1.188-0.09-1.787-0.09
		c-6.144,0-12.33,3.022-16.551,8.087c-4.454,5.342-6.162,12.361-4.808,19.764c2.277,12.448,9.122,17.08,9.754,17.482
		c4.479,3.807,10.618,6.051,17.743,6.401c0.434,0.022,0.859,0.032,1.289,0.032c11.331-0.001,19.836-7.133,23.901-12.52
		c2.072-2.482,6.589-8.667,9.557-18.431c3.398-11.177,0.799-17.412-1.451-21.131c-0.468-0.772-0.655-1.561-0.685-2.303
		c1.144,0.474,2.038,1.6,3.17,1.979c1.309,0.436,1.636-0.929,1.491-1.953c-0.366-2.597-1.533-5.247-2.392-7.717
		c-0.608-1.744-1.195-3.553-2.163-5.136c-0.881-1.434-3.105-4.486-6.955-5.794c-2.701-0.916-5.784-2.298-7.041-4.095
		c1.602,0.014,3.096,0.165,4.656,0.475c1.231,0.241,2.635,0.217,2.565-1.413c-0.063-1.436-0.921-2.903-1.428-4.228
		c-0.491-1.287-1.072-2.642-1.878-3.767c-1.179-1.645-3.078-2.659-4.896-3.441c-4.051-1.737-8.245-3.411-12.591-4.234
		c-2.999-0.569-4.26-1.263-5.455-2.516c6.863-0.944,13.69,0.815,18.298,3.388c1.165,0.647,2.294,1.361,3.387,2.127
		c1.8,1.267,3.509,2.656,5.292,3.944c5,3.609,10.663,6.182,16.484,8.156c2.283,0.775,7.294,2.619,8.762-0.491
		c0.553-1.175-0.232-2.314-0.848-3.28c-0.624-0.979-1.18-1.989-1.367-3.152c-0.479-2.952,0.082-5.936-2.152-8.325
		c-1.641-1.756-5.452-0.952-7.555-0.894c-0.248,0.007-0.494,0.006-0.743,0.008c2.331-0.746,4.554-1.433,7.016-1.507
		c2.634-0.081,5.286,0.13,7.903-0.263c1.369-0.207,3.078-0.941,3.411-2.422c0.05-0.22,0.073-0.438,0.075-0.649
		c0.012-1.634-1.28-2.994-1.75-4.491C139.669,170.018,139.536,167.771,139.683,165.541z M95.536,78.526
		c-1.005,2.405-2.184,4.735-3.372,7.055c-0.938,1.83-1.567,3.735-2.039,5.734c-3.567,0.031-5.199-0.248-7.769-0.111
		c-0.143-2.623-0.521-4.789-1.176-7.349c-0.438-1.712-1.432-5.473-1.358-9.817c9.558-1.481,11.196-0.981,16.513-0.29
		C96.958,75.158,96.107,77.165,95.536,78.526z M79.673,248.966l-0.301,0.571l-0.107,0.201c0.016-0.029-1.039-0.022-1.129-0.005
		c-0.751,0.159-1.013,0.593-1.428,1.157c-0.793-0.983-0.491-2.656-0.026-4.521c0.422-1.087,3.915-1.219,3.827-0.203
		C80.415,247.256,80.173,248.012,79.673,248.966z M62.613,244.566c-0.203,0.727-0.569,3.267-0.773,5.569
		c-0.089,1.01-0.547,1.43-0.768,0.329c-0.145-0.729-0.094-1.583-0.089-2.318c0.01-1.927,0.107-3.863,0.269-5.784
		c0.348-4.123,2.578-8.114,5.773-10.744c3.185-2.628,7.516-4.31,12.07-4.31c0.484,0,0.969,0.021,1.44,0.061
		c7.29,0.624,15.905,7.839,11.75,15.879c-0.887,1.715-0.699-1.467-2.516-4.441c-0.693-1.133-2.105-2.269-3.331-3.041
		c-2.562-1.612-5.96-2.307-9.132-2.111c-1.735,0.107-3.655,0.456-5.247,1.059C67.323,236.507,63.8,240.366,62.613,244.566z
		 M102.809,137.824c0,0.126,0.438,1.911,0.687,3.089c1.213,5.778,7.636,7.893,11.668,3.774c1.762-1.797,2.557-3.75,2.747-6.092
		c0.087-1.186,0.144-6.925,0.17-6.777c0.554,3.038,11.757,8.296,10.896,11.668c-0.795,0.029-1.03,0.388-1.63,0.857
		c-1.632,1.277-3.063,2.593-4.546,4.032c-2.742,2.665-5.447,5.311-9.396,5.923c-3.811,0.587-7.646-0.725-10.842-2.738
		c-1.428-0.898-2.845-1.846-4.099-2.977c-1.203-1.085-1.85-2.275-2.729-3.58c2.084,3.092,4.016,0.583,4.788-1.41
		C100.671,143.203,102.402,138.787,102.809,137.824z M105.323,84.616c1.739-0.839,4.188-1.8,5.928-0.52
		c4.667,7.679,3.698,10.963,4.175,13.169c-0.84,1.625-4.059,0.69-5.383,0.395c-2.015-0.449-4.029-1.056-6.111-1.083
		c-2.037-0.024-4.053,0.542-5.941,1.262c-0.16,0.06-0.32,0.123-0.478,0.186c-0.239-1.526-0.376-2.006-0.444-2.965
		C97.53,90.478,101.429,86.498,105.323,84.616z M94.238,105.254c0.58-0.434,2.883-0.412,3.552-0.29
		c1.345,0.249,2.517,0.762,3.769,1.305c2.137,0.93,4.082,1.839,5.798,3.414c1.085,0.993,4.203,3.546,3.046,5.27
		c-0.838,1.245-4.844,7.712-4.844,7.712c-0.151-0.174-0.305-0.343-0.462-0.512c-2.806-3.227-6.64-5.65-10.435-7.547
		c-2.619-1.311-5.371-2.238-8.267-2.686C86.198,111.891,93.751,105.62,94.238,105.254z M65.113,135.213
		c-0.809,0.215-1.57-0.17-0.934-0.935c1.768-2.128,7.205-8.957,8.826-10.478c0.862-0.807,2.551-2.048,4.664-1.938
		c3.068,0.16,6.745-0.108,12.183,2.798c5.437,2.908,10.927,5.976,10.171,8.182c-0.75,2.208-2.958,6.997-3.281,7.481
		s-0.323,1.563-1.723,0.107c-1.4-1.452-6.352-4.359-12.865-5.65C75.642,133.489,65.919,134.998,65.113,135.213z M114.343,249.652
		c-0.9,1.866-1.932,3.756-3.68,4.993c-0.44,0.313-0.898,0.598-1.345,0.899c0.487-0.331,0.869-1.863,1.058-2.399
		c0.332-0.944,0.547-1.919,0.639-2.911c0.166-1.79,0.171-3.964-0.725-5.586c-0.502-0.914-1.51-2.069-2.455-2.566
		c-1.037-0.544-1.218-1.418-1.303-2.518c-0.115-1.47-0.15-2.955-0.227-4.428c-0.1-1.879-0.472-6.178,1.339-7.514
		c3.066-2.255,6.439,3.646,7.348,5.607c0.894,1.925,1.396,3.884,1.555,5.844C116.838,242.645,115.995,246.224,114.343,249.652z
		 M107.777,209.756c0.443-0.068,0.91-0.136,1.385-0.185c1.74-0.188,3.611-0.175,5.121,0.643c3.214,1.743,4.57,10.918,0.678,8.759
		c-1.032-0.572-2.337-0.381-3.51-0.325c-2.617,0.122-4.623,1.021-5.899,3.27c-0.476-1.634-0.872-2.433-1.294-3.813
		c-0.551-1.803-1.838-4.495-1.226-5.925C103.767,210.463,106.154,210.005,107.777,209.756z M87.046,188.451
		c3.957-0.947,8.143-0.717,12.047,0.364c-0.01-0.002-0.016-0.002-0.019,0.004c3.63,0.864,5.722,3.986,6.609,7.405
		c0.027,0.112,0.171,1.182,0.253,1.211c-2.252-0.875-5.713-0.322-8.004,0.154c-1.585,0.33-3.112,0.909-4.529,1.689
		c-1.397,0.772-2.486,2.001-3.844,2.772c-1.188,0.676-10.977-7.915-11.195-8.018c0.025-0.323,0.295-0.663,0.494-0.905
		c0.246-0.297,0.532-0.566,0.813-0.834C81.716,190.339,84.303,189.107,87.046,188.451z M129.693,185.127
		c1.291,1.739,1.083,3.994,1.439,6.02c0.189,1.081,2.082,3.937,0.502,4.489c-0.838,0.292-2.152-0.109-2.98-0.327
		c-7.978-2.09-15.064-7.901-22.029-12.133c-8.663-5.27-19.587-10.15-29.358-4.799c-1.726,0.943-3.311,2.111-4.837,3.351
		c-0.926,0.752-2.814,3.085-4.197,2.394c-0.878-0.439-1.602-1.289-2.252-2.017c-1.341-1.499-2.375-3.234-3.622-4.808
		c-1.09-1.376-2.108-2.622-1.085-4.389c1.869-3.227,10.24-6.14,18.542-5.313c16.389,1.63,22.483,9.181,26.23,11.142
		c3.519,1.84,7.485,3.03,11.282,4.144c1.785,0.522,3.66,1.163,5.543,1.227c0.248,0.01,0.498,0.01,0.746-0.005
		C125.566,183.998,128.316,183.272,129.693,185.127z M137.218,154.934c-0.545,4.367-2.4,8.442-2.321,12.918
		c0.081,4.514,2.457,7.099,1.654,8.553c-0.33,0.598-1.886,0.588-2.428,0.627c-2.321,0.179-4.577,0.144-6.875,0.605
		c-2.399,0.483-4.751,1.195-7.188,1.484c-3.315,0.395-6.813,0.053-9.789-1.543c-4.024-2.156-7.056-6.249-10.45-9.242
		c-3.506-3.094-7.325-5.937-11.621-7.841c-2.504-1.109-5.14-1.905-7.848-2.323c-7.766-1.194-15.25,0.296-21.558,5.135
		c-2.185,1.674-1.584-14.947-1.543-15.188c0.113-0.675,3.971-1.601,4.484-1.754c2.459-0.731,4.986-1.262,7.539-1.525
		c4.967-0.515,10.168-0.149,14.969,1.265c2.733,0.808,5.461,1.996,7.921,3.438c7.356,4.316,14.732,10.854,23.906,8.024
		c4.044-1.249,7.456-4.021,11.099-6.089c2.153-1.226,4.655-2.97,7.225-2.988C137.806,148.464,137.503,152.657,137.218,154.934z"/>
	<path style="fill:#A8A8A8;" d="M175.902,50.036c-2.18-9.501-14.285-16.216-35.979-19.959c-5.008-0.864-10.152-1.508-15.165-1.99
		V6.451H65.048v21.637c-5.013,0.481-10.158,1.125-15.166,1.989c-21.693,3.743-33.798,10.458-35.978,19.96
		c-7.995,34.848-1.642,123.944,17.172,178.25c8.603,24.836,24.169,43.896,32.681,53.048c12.245,13.164,24.762,22.009,31.146,22.009
		c6.385,0,18.901-8.845,31.147-22.01c8.513-9.152,24.078-28.214,32.682-53.05C177.544,173.979,183.897,84.883,175.902,50.036z
		 M70.048,32.588C70.048,32.588,70.048,32.588,70.048,32.588l0.001-4.933c0,0-0.001,0-0.001,0V11.451h49.711v39.584H70.048V32.588z
		 M154.007,226.647c-14.531,41.947-50.821,71.696-59.104,71.696c-8.282,0-44.571-29.748-59.103-71.693
		C17.24,173.075,10.926,85.373,18.777,51.154c1.691-7.369,15.087-15.126,46.271-18.133v23.013h59.711V33.022
		c31.183,3.007,44.579,10.763,46.271,18.133C178.879,85.372,172.566,173.072,154.007,226.647z"/>
</g>
</svg>
