<?xml version="1.0" encoding="UTF-8" standalone="no"?>
<svg width="206px" height="88px" viewBox="0 0 206 88" version="1.1" xmlns="http://www.w3.org/2000/svg" xmlns:xlink="http://www.w3.org/1999/xlink">
    <!-- Generator: Sketch 3.7.2 (28276) - http://www.bohemiancoding.com/sketch -->
    <title>cepy 2</title>
    <desc>Created with Sketch.</desc>
    <defs></defs>
    <g id="Page-1" stroke="none" stroke-width="1" fill="none" fill-rule="evenodd">
        <g id="cepy-2" fill="#A98C5A">
            <g id="Слой_1">
                <g id="Shape_13">
                    <path d="M191.82,0.309 C186.9,0.092 181.957,0.162 177.032,0.331 C175.266,0.392 173.503,1.056 171.782,1.592 C171.106,1.802 170.619,1.827 169.919,1.622 C167.932,1.039 165.898,0.378 163.856,0.27 C159.683,0.054 155.494,0.185 151.312,0.167 C148.875,0.156 146.536,0.579 144.285,1.552 C143.892,1.722 143.333,1.622 142.883,1.514 C142.768,1.487 142.653,1.453 142.538,1.423 C141.599,1.029 140.602,0.731 139.559,0.54 C138.922,0.375 138.285,0.253 137.643,0.231 C135.437,0.158 133.226,0.148 131.016,0.179 C128.258,0.179 125.498,0.235 122.745,0.33 C120.978,0.391 119.215,1.055 117.494,1.591 C116.818,1.801 116.332,1.826 115.632,1.621 C113.645,1.038 111.611,0.377 109.568,0.269 C105.396,0.053 101.207,0.184 97.025,0.166 C94.588,0.155 92.248,0.578 89.998,1.551 C89.605,1.721 89.045,1.621 88.595,1.513 C88.544,1.501 88.493,1.486 88.442,1.472 C87.381,1.015 86.247,0.681 85.051,0.487 C84.488,0.35 83.923,0.249 83.355,0.23 C81.159,0.158 78.958,0.147 76.757,0.177 C74.01,0.177 71.262,0.234 68.521,0.328 C66.754,0.389 64.992,1.053 63.271,1.589 C62.595,1.799 62.108,1.824 61.408,1.619 C59.421,1.036 57.387,0.375 55.344,0.267 C51.172,0.051 46.983,0.182 42.801,0.164 C40.364,0.153 38.025,0.576 35.774,1.549 C35.381,1.719 34.822,1.619 34.372,1.511 C32.617,1.092 30.889,0.287 29.131,0.229 C24.087,0.063 19.016,-0.074 13.989,0.275 C7.929,0.696 3.537,3.954 1.358,9.708 C-0.784,15.364 0.608,20.433 4.296,24.587 C7.59,27.773 11.153,29.315 15.342,29.321 C19.526,29.328 23.707,29.314 27.89,29.325 C30.254,29.332 32.496,28.833 34.661,27.873 C35.06,27.695 35.618,27.752 36.072,27.85 C37.988,28.254 39.878,29.002 41.803,29.1 C46.093,29.316 50.4,29.189 54.699,29.258 C57.228,29.299 59.629,28.852 61.936,27.796 C62.331,27.615 62.894,27.684 63.349,27.777 C65.304,28.182 67.239,28.935 69.202,29.017 C69.325,29.022 69.448,29.023 69.57,29.028 L69.57,29.032 C69.68,29.032 69.789,29.036 69.899,29.037 C71.293,29.087 72.688,29.112 74.084,29.122 C76.761,29.206 79.437,29.318 82.114,29.325 C84.479,29.332 86.721,28.833 88.885,27.873 C89.284,27.695 89.842,27.752 90.296,27.85 C92.211,28.254 94.102,29.002 96.027,29.1 C97.456,29.171 98.887,29.2 100.319,29.215 C99.663,29.798 99.186,30.586 99.002,31.492 C94.656,33.164 91.776,37.311 91.776,41.992 L91.776,55.065 C91.776,55.653 91.933,56.35 92.444,57.047 C88.282,60.313 85.829,65.318 85.829,70.658 C85.829,80.183 93.539,87.933 103.018,87.933 C112.497,87.933 120.206,80.183 120.206,70.658 C120.206,65.314 117.748,60.304 113.581,57.037 C114.009,56.461 114.258,55.807 114.258,55.064 L114.258,41.991 C114.258,37.31 111.378,33.163 107.032,31.491 C106.85,30.595 106.381,29.815 105.736,29.233 C106.799,29.234 107.861,29.24 108.923,29.256 C111.451,29.297 113.853,28.85 116.16,27.794 C116.555,27.613 117.117,27.682 117.572,27.775 C119.528,28.18 121.462,28.933 123.426,29.015 C123.57,29.021 123.714,29.022 123.859,29.028 L123.859,29.03 C123.922,29.03 123.986,29.032 124.049,29.033 C125.494,29.086 126.941,29.111 128.388,29.121 C131.059,29.204 133.73,29.316 136.403,29.323 C138.767,29.33 141.009,28.831 143.174,27.871 C143.573,27.693 144.131,27.75 144.585,27.848 C146.501,28.252 148.391,29 150.316,29.098 C154.606,29.314 158.913,29.187 163.212,29.256 C165.74,29.297 168.142,28.85 170.45,27.794 C170.844,27.613 171.407,27.682 171.862,27.775 C173.817,28.18 175.752,28.933 177.715,29.015 C182.244,29.204 186.788,29.12 191.325,29.064 C197.267,28.991 202.716,25.195 204.751,19.809 C208.208,10.663 201.71,0.744 191.82,0.309 L191.82,0.309 Z M27.86,20.533 C23.719,20.523 19.578,20.514 15.436,20.495 C13.069,20.483 11.097,19.629 9.853,17.534 C7.734,13.962 10.113,9.28 14.388,9.042 C19.021,8.784 23.68,8.979 28.503,8.976 C26.919,12.954 27.041,16.697 28.628,20.465 C28.311,20.494 28.086,20.533 27.86,20.533 L27.86,20.533 Z M118.336,70.662 C118.336,79.152 111.464,86.06 103.016,86.06 C94.568,86.06 87.694,79.152 87.694,70.662 C87.694,65.789 89.988,61.226 93.861,58.322 C94.336,58.621 94.908,58.908 95.608,59.166 C97.578,59.896 100.21,60.299 103.017,60.299 C106.508,60.299 110.017,59.668 112.164,58.317 C116.041,61.221 118.336,65.787 118.336,70.662 L118.336,70.662 Z M112.389,41.996 L112.389,55.069 C112.389,55.522 112.145,55.95 111.708,56.34 C111.66,56.367 111.608,56.387 111.564,56.422 C108.286,59.082 97.742,59.08 94.465,56.424 C94.422,56.389 94.371,56.369 94.323,56.342 C93.885,55.951 93.64,55.522 93.64,55.069 L93.64,41.996 C93.64,37.931 96.252,34.348 100.14,33.08 L100.755,32.879 L100.783,32.231 C100.84,31.013 101.819,30.06 103.014,30.06 C104.208,30.06 105.187,31.013 105.243,32.231 L105.272,32.879 L105.887,33.08 C109.776,34.347 112.389,37.93 112.389,41.996 L112.389,41.996 Z M150.561,2.131 C155.056,2.073 159.556,2.103 164.049,2.224 C165.58,2.266 167.102,2.703 168.781,2.984 C167.509,4.467 166.478,5.697 165.404,6.886 C165.238,7.071 164.86,7.136 164.58,7.135 C159.927,7.114 155.273,7.029 150.619,7.045 C150.139,7.047 149.678,7.092 149.23,7.162 C148.262,5.599 147.003,4.216 145.506,3.11 C147.033,2.486 148.721,2.154 150.561,2.131 L150.561,2.131 Z M142.096,12.142 C142.516,12.964 142.71,13.821 142.726,14.658 C142.72,14.808 142.707,14.955 142.707,15.109 C142.707,15.287 142.685,15.46 142.667,15.634 C142.359,17.582 141.029,19.277 139.064,19.955 C137.399,16.356 137.301,12.795 139.004,9.371 C140.307,9.835 141.373,10.726 142.096,12.142 L142.096,12.142 Z M150.369,9.26 C154.961,9.215 159.528,9.169 164.229,9.122 C162.767,12.882 162.745,16.583 164.297,20.185 C159.701,20.237 155.124,20.288 150.398,20.34 C151.81,16.579 151.813,12.839 150.369,9.26 L150.369,9.26 Z M96.271,2.131 C100.766,2.073 105.265,2.103 109.759,2.224 C111.29,2.266 112.811,2.703 114.49,2.984 C113.218,4.467 112.188,5.697 111.114,6.886 C110.947,7.071 110.569,7.136 110.29,7.135 C105.637,7.114 100.983,7.029 96.329,7.045 C95.87,7.047 95.429,7.09 94.998,7.154 C94.026,5.585 92.76,4.199 91.254,3.092 C92.772,2.478 94.447,2.154 96.271,2.131 L96.271,2.131 Z M96.934,17.3 C97.003,16.924 97.055,16.548 97.093,16.173 C97.097,16.135 97.099,16.097 97.103,16.059 C97.327,13.699 96.951,11.383 96.086,9.281 C96.083,9.274 96.082,9.267 96.079,9.26 C100.672,9.215 105.238,9.169 109.94,9.122 C108.477,12.882 108.455,16.583 110.007,20.185 C105.411,20.237 100.835,20.288 96.108,20.34 C96.49,19.325 96.759,18.311 96.934,17.3 L96.934,17.3 Z M87.871,12.142 C88.202,12.79 88.393,13.459 88.47,14.124 C88.438,14.446 88.417,14.773 88.418,15.109 C88.419,15.63 88.337,16.131 88.189,16.608 C88.172,16.655 88.158,16.703 88.14,16.75 C88.104,16.853 88.057,16.951 88.014,17.052 C87.695,17.76 87.229,18.395 86.64,18.911 C86.574,18.968 86.511,19.027 86.442,19.081 C86.341,19.162 86.234,19.235 86.126,19.308 C86.022,19.379 85.916,19.447 85.806,19.512 C85.666,19.594 85.525,19.674 85.376,19.744 C85.354,19.755 85.331,19.765 85.308,19.775 C85.14,19.851 84.963,19.916 84.784,19.976 C83.106,16.364 83.011,12.789 84.725,9.353 C86.051,9.813 87.138,10.707 87.871,12.142 L87.871,12.142 Z M34.192,15.109 C34.196,17.275 32.849,19.141 30.572,20.009 C28.717,16.039 28.748,12.113 31.021,8.366 C33.506,4.271 37.277,2.19 42.045,2.131 C46.54,2.073 51.04,2.103 55.533,2.224 C57.064,2.266 58.586,2.703 60.265,2.984 C58.992,4.467 57.962,5.697 56.888,6.886 C56.722,7.071 56.344,7.136 56.064,7.135 C51.411,7.114 46.757,7.029 42.103,7.045 C37.422,7.065 34.185,10.413 34.192,15.109 L34.192,15.109 Z M41.854,9.26 C46.447,9.215 51.014,9.169 55.715,9.122 C54.253,12.882 54.231,16.583 55.782,20.185 C51.187,20.237 46.61,20.288 41.884,20.34 C43.295,16.579 43.299,12.839 41.854,9.26 L41.854,9.26 Z M67.896,17.708 C66.579,23.06 61.839,27.051 56.273,27.225 C51.39,27.377 46.499,27.292 41.612,27.194 C40.229,27.166 38.854,26.717 37.394,26.448 C38.575,25.04 39.536,23.847 40.558,22.708 C40.773,22.468 41.204,22.305 41.535,22.305 C46.224,22.311 50.917,22.421 55.607,22.365 C60.224,22.309 63.33,18.949 63.38,14.283 C63.405,11.932 64.799,10.444 66.952,9.375 C68.227,12.098 68.602,14.845 67.896,17.708 L67.896,17.708 Z M69.144,20.189 C70.573,16.487 70.474,12.781 68.902,9.027 C69.316,8.983 69.614,8.923 69.91,8.924 C74.09,8.932 78.27,8.921 82.449,8.973 C82.543,8.974 82.632,8.986 82.725,8.991 C81.173,12.897 81.274,16.578 82.786,20.279 C78.929,20.426 75.053,20.296 71.113,20.223 C70.647,20.214 70.183,20.198 69.716,20.196 L69.716,20.199 C69.523,20.196 69.335,20.191 69.144,20.189 L69.144,20.189 Z M122.122,17.708 C120.805,23.06 116.065,27.051 110.499,27.225 C105.616,27.377 100.725,27.292 95.838,27.194 C94.454,27.166 93.079,26.717 91.62,26.448 C92.191,25.766 92.71,25.137 93.211,24.538 C93.618,24.117 93.996,23.672 94.348,23.205 C94.493,23.039 94.637,22.871 94.783,22.708 C94.999,22.468 95.429,22.305 95.76,22.305 C100.45,22.311 105.143,22.421 109.833,22.365 C114.45,22.309 117.555,18.949 117.605,14.283 C117.631,11.932 119.025,10.444 121.177,9.375 C122.451,12.098 122.826,14.845 122.122,17.708 L122.122,17.708 Z M123.369,20.189 C124.798,16.487 124.698,12.781 123.127,9.027 C123.541,8.983 123.838,8.923 124.135,8.924 C128.315,8.932 132.494,8.921 136.674,8.973 C136.789,8.974 136.899,8.989 137.012,8.994 C135.462,12.898 135.564,16.577 137.075,20.277 C133.386,20.421 129.68,20.307 125.919,20.232 C125.281,20.217 124.644,20.198 124.004,20.195 L124.004,20.199 C123.792,20.197 123.582,20.191 123.369,20.189 L123.369,20.189 Z M176.411,17.708 C175.094,23.06 170.354,27.051 164.788,27.225 C159.905,27.377 155.014,27.292 150.127,27.194 C148.744,27.166 147.369,26.717 145.91,26.448 C147.09,25.04 148.051,23.847 149.073,22.708 C149.288,22.468 149.719,22.305 150.05,22.305 C154.74,22.311 159.432,22.421 164.122,22.365 C168.74,22.309 171.845,18.949 171.895,14.283 C171.92,11.932 173.314,10.444 175.467,9.375 C176.741,12.098 177.116,14.845 176.411,17.708 L176.411,17.708 Z M191.722,20.269 C187.084,20.472 182.427,20.236 177.659,20.189 C179.088,16.487 178.989,12.781 177.418,9.027 C177.831,8.983 178.129,8.923 178.426,8.924 C182.605,8.932 186.785,8.921 190.964,8.973 C193.337,9.002 195.268,9.952 196.387,12.142 C198.239,15.769 195.888,20.085 191.722,20.269 L191.722,20.269 Z" id="Shape"></path>
                </g>
            </g>
        </g>
    </g>
</svg>