<?xml version="1.0" encoding="UTF-8" standalone="no"?>
<svg width="124px" height="104px" viewBox="0 0 124 104" version="1.1" xmlns="http://www.w3.org/2000/svg" xmlns:xlink="http://www.w3.org/1999/xlink">
    <!-- Generator: Sketch 3.7.2 (28276) - http://www.bohemiancoding.com/sketch -->
    <title>zont</title>
    <desc>Created with Sketch.</desc>
    <defs></defs>
    <g id="Page-1" stroke="none" stroke-width="1" fill="none" fill-rule="evenodd">
        <g id="zont" fill="#A98C5A">
            <g id="Слой_1">
                <g id="Shape_10">
                    <path d="M123.375,64.651 C121.85,41.822 111.26,24.067 92.194,11.257 C90.16,9.89 87.984,8.729 85.884,7.478 C87.032,4.598 87.003,3.455 85.582,2.774 C82.885,1.482 82.394,3.982 81.33,5.433 C80.815,5.24 80.374,5.079 79.935,4.91 C67.658,0.152 55.02,-1.177 42.033,1.104 C25.743,3.965 12.573,12.313 1.336,24.02 C0.331,25.067 0.229,26.209 1.135,27.334 C1.977,28.379 3.506,28.49 4.574,27.397 C5.56,26.387 6.342,26.521 7.484,27.055 C16.874,31.443 26.294,35.767 35.703,40.117 C36.269,40.379 36.812,40.688 37.407,40.996 C36.769,42.668 36.185,44.337 38.128,45.253 C40.172,46.217 41.063,44.561 41.973,43.036 C47.964,45.806 53.876,48.54 59.897,51.324 C58.325,54.679 56.818,57.901 55.304,61.12 C50.197,71.987 45.082,82.852 39.98,93.722 C38.772,96.295 36.93,98.149 34.118,98.935 C29.188,100.313 25.809,97.425 26.624,92.451 C26.83,91.198 27.381,90 27.79,88.782 C28.286,87.303 27.834,86.062 26.593,85.54 C25.336,85.012 23.981,85.488 23.449,86.966 C22.72,88.987 21.948,91.074 21.74,93.187 C21.192,98.745 24.497,102.803 30.039,103.792 C35.85,104.829 41.515,101.602 44.377,95.549 C48.534,86.76 52.644,77.95 56.781,69.153 C59.244,63.914 61.722,58.682 64.249,53.332 C70.433,56.195 76.494,59.003 82.535,61.8 C81.655,64.393 81.901,65.564 83.356,66.205 C84.688,66.793 85.663,66.224 87.122,63.905 C97.038,68.497 106.858,73.065 116.708,77.572 C117.822,78.082 118.368,78.622 118.242,79.918 C118.099,81.384 118.819,82.422 120.405,82.582 C121.833,82.727 122.899,81.742 122.965,80.082 C123.166,74.938 123.717,69.764 123.375,64.651 L123.375,64.651 Z M39.423,36.62 C29.525,32.045 19.675,27.492 9.55,22.811 C17.952,14.792 27.575,9.443 38.64,6.696 C50.578,3.731 62.417,4.2 74.104,8.068 C58.094,12.245 47.056,22.23 39.423,36.62 L39.423,36.62 Z M86.298,52.293 C85.832,53.737 85.266,55.15 84.736,56.574 C84.657,56.786 84.523,56.977 84.306,57.38 C70.783,51.125 57.392,44.933 43.758,38.627 C44.6,37.16 45.331,35.789 46.153,34.473 C53.388,22.881 63.383,15.03 77.111,12.515 C81.861,11.644 80.648,10.909 83.097,15.19 C89.874,27.036 90.427,39.486 86.298,52.293 L86.298,52.293 Z M118.477,73.177 C108.589,68.605 98.747,64.054 88.759,59.437 C94.995,44.394 95.605,29.495 88.254,14.59 C106.088,22.384 122.365,53.954 118.477,73.177 L118.477,73.177 Z" id="Shape"></path>
                </g>
            </g>
        </g>
    </g>
</svg>