<?xml version="1.0" encoding="utf-8"?>
<!-- Generator: Adobe Illustrator 16.0.0, SVG Export Plug-In . SVG Version: 6.00 Build 0)  -->
<!DOCTYPE svg PUBLIC "-//W3C//DTD SVG 1.1//EN" "http://www.w3.org/Graphics/SVG/1.1/DTD/svg11.dtd">
<svg version="1.1" id="Слой_1" xmlns="http://www.w3.org/2000/svg" xmlns:xlink="http://www.w3.org/1999/xlink" x="0px" y="0px"
	 width="640px" height="480px" viewBox="0 0 640 480" enable-background="new 0 0 640 480" xml:space="preserve">
<g id="Shape_10">
	<g>
		<path fill="#A98C5A" d="M381.375,252.651c-1.525-22.829-12.115-40.584-31.181-53.394c-2.034-1.367-4.21-2.528-6.31-3.779
			c1.148-2.88,1.119-4.023-0.302-4.704c-2.697-1.292-3.188,1.208-4.252,2.659c-0.515-0.193-0.956-0.354-1.395-0.523
			c-12.277-4.758-24.915-6.087-37.902-3.806c-16.29,2.861-29.46,11.209-40.697,22.916c-1.005,1.047-1.107,2.189-0.201,3.314
			c0.842,1.045,2.371,1.156,3.439,0.063c0.986-1.01,1.768-0.876,2.91-0.342c9.39,4.388,18.81,8.712,28.219,13.062
			c0.566,0.262,1.109,0.571,1.704,0.879c-0.638,1.672-1.222,3.341,0.721,4.257c2.044,0.964,2.935-0.692,3.845-2.217
			c5.991,2.77,11.903,5.504,17.924,8.288c-1.572,3.355-3.079,6.577-4.593,9.796c-5.107,10.867-10.222,21.732-15.324,32.602
			c-1.208,2.573-3.05,4.427-5.862,5.213c-4.93,1.378-8.309-1.51-7.494-6.484c0.206-1.253,0.757-2.451,1.166-3.669
			c0.496-1.479,0.044-2.72-1.197-3.242c-1.257-0.528-2.612-0.052-3.144,1.426c-0.729,2.021-1.501,4.108-1.709,6.221
			c-0.548,5.558,2.757,9.616,8.299,10.605c5.811,1.037,11.476-2.19,14.338-8.243c4.157-8.789,8.267-17.599,12.404-26.396
			c2.463-5.239,4.941-10.471,7.468-15.821c6.184,2.863,12.245,5.671,18.286,8.468c-0.88,2.593-0.634,3.764,0.821,4.405
			c1.332,0.588,2.307,0.019,3.766-2.3c9.916,4.592,19.736,9.16,29.586,13.667c1.114,0.51,1.66,1.05,1.534,2.346
			c-0.143,1.466,0.577,2.504,2.163,2.664c1.428,0.145,2.494-0.84,2.56-2.5C381.166,262.938,381.717,257.764,381.375,252.651z
			 M297.423,224.62c-9.898-4.575-19.748-9.128-29.873-13.809c8.402-8.019,18.025-13.368,29.09-16.115
			c11.938-2.965,23.777-2.496,35.464,1.372C316.094,200.245,305.056,210.23,297.423,224.62z M344.298,240.293
			c-0.466,1.444-1.032,2.857-1.562,4.281c-0.079,0.212-0.213,0.403-0.43,0.806c-13.523-6.255-26.914-12.447-40.548-18.753
			c0.842-1.467,1.573-2.838,2.395-4.154c7.235-11.592,17.23-19.443,30.958-21.958c4.75-0.871,3.537-1.606,5.986,2.675
			C347.874,215.036,348.427,227.486,344.298,240.293z M376.477,261.177c-9.888-4.572-19.73-9.123-29.718-13.74
			c6.236-15.043,6.846-29.942-0.505-44.847C364.088,210.384,380.365,241.954,376.477,261.177z"/>
	</g>
</g>
</svg>
